STARTFONT 2.1
COMMENT
COMMENT Converted from OpenType font "Q:\font stuff\winfont\TlwgTypewriter.ttf" by "otf2bdf 3.0".
COMMENT
FONT -FreeType-TlwgTypewriter-Medium-R-Normal--50-500-72-72-P-204-ISO10646-1
SIZE 50 72 72
FONTBOUNDINGBOX 113 64 -28 -19
STARTPROPERTIES 19
FOUNDRY "FreeType"
FAMILY_NAME "TlwgTypewriter"
WEIGHT_NAME "Medium"
SLANT "R"
SETWIDTH_NAME "Normal"
ADD_STYLE_NAME ""
PIXEL_SIZE 34
POINT_SIZE 500
RESOLUTION_X 72
RESOLUTION_Y 72
SPACING "P"
AVERAGE_WIDTH 204
CHARSET_REGISTRY "ISO10646"
CHARSET_ENCODING "1"
FONT_ASCENT 44
FONT_DESCENT 12
COPYRIGHT "Tlwg Typewriter, Free Thai Pseudo Monospace outline font. Copyright (C) 2003, 2004 Poonlap Veerathanabutr <poonlap@linux.thai.net>"
_OTF_FONTFILE "Q:\font stuff\winfont\TlwgTypewriter.ttf"
_OTF_PSNAME "TlwgTypewriter"
ENDPROPERTIES
CHARS 339
STARTCHAR 0020
ENCODING 32
SWIDTH 600 0
DWIDTH 30 0
BBX 0 0 0 0
BITMAP
ENDCHAR
STARTCHAR 0021
ENCODING 33
SWIDTH 600 0
DWIDTH 30 0
BBX 6 32 12 -1
BITMAP
30
78
78
78
78
78
78
78
78
78
78
78
78
78
78
78
78
78
78
78
30
00
00
00
00
00
00
78
FC
FC
FC
78
ENDCHAR
STARTCHAR 0022
ENCODING 34
SWIDTH 600 0
DWIDTH 30 0
BBX 16 14 7 16
BITMAP
FE7F
7E3F
7C3E
7C3E
7C3E
7C3E
7C3E
7C3E
7C3E
381C
381C
381C
381C
381C
ENDCHAR
STARTCHAR 0023
ENCODING 35
SWIDTH 600 0
DWIDTH 30 0
BBX 20 35 5 -3
BITMAP
010600
030600
030600
030600
030600
030600
030600
030600
030600
030600
030600
030600
FFFFF0
FFFFF0
030C00
030C00
030C00
030C00
030C00
030C00
060C00
FFFFF0
FFFFF0
060C00
060C00
060C00
060C00
060C00
060C00
060C00
060C00
061C00
061800
061800
061800
ENDCHAR
STARTCHAR 0024
ENCODING 36
SWIDTH 600 0
DWIDTH 30 0
BBX 18 36 6 -4
BITMAP
00C000
00C000
00C000
03F000
0FFD80
1E0F80
380380
300380
600180
600180
600000
600000
600000
300000
3E0000
0FE000
01FC00
001F00
000380
0001C0
0000C0
0000C0
C000C0
C000C0
E00180
F00380
FC0F00
DFFE00
07F000
00C000
00C000
00C000
00C000
00C000
00C000
00C000
ENDCHAR
STARTCHAR 0025
ENCODING 37
SWIDTH 600 0
DWIDTH 30 0
BBX 21 32 5 -1
BITMAP
078000
1FE000
387000
303000
601800
601800
601800
601800
601800
303000
387000
1FE000
078038
0001F0
001F80
00FC00
07E000
3F0000
F80000
C01E00
007F80
00E1C0
00C0C0
018060
018060
018060
018060
018060
00C0C0
00E1C0
007F80
001E00
ENDCHAR
STARTCHAR 0026
ENCODING 38
SWIDTH 600 0
DWIDTH 30 0
BBX 19 27 5 -1
BITMAP
01E400
07FE00
0E1800
1C0000
180000
180000
180000
180000
0C0000
0C0000
060000
030000
0F0000
398000
3081E0
60C1E0
E06180
C06300
C03300
C01F00
C01E00
C00C00
601E00
701E00
3873E0
1FE3E0
07C000
ENDCHAR
STARTCHAR 0027
ENCODING 39
SWIDTH 600 0
DWIDTH 30 0
BBX 7 14 12 16
BITMAP
FE
7E
7C
7C
7C
7C
7C
7C
7C
38
38
38
38
38
ENDCHAR
STARTCHAR 0028
ENCODING 40
SWIDTH 600 0
DWIDTH 30 0
BBX 8 36 15 -7
BITMAP
03
07
06
0E
0C
1C
18
38
38
70
70
70
70
E0
E0
E0
E0
E0
E0
E0
E0
E0
E0
70
70
70
70
38
38
18
1C
1C
0E
06
07
03
ENDCHAR
STARTCHAR 0029
ENCODING 41
SWIDTH 600 0
DWIDTH 30 0
BBX 8 36 8 -7
BITMAP
C0
E0
60
70
30
38
38
1C
1C
0C
0E
0E
0E
06
07
07
07
07
07
07
07
07
07
0E
0E
0E
0E
1C
1C
18
38
30
70
60
E0
C0
ENDCHAR
STARTCHAR 002A
ENCODING 42
SWIDTH 600 0
DWIDTH 30 0
BBX 18 17 6 12
BITMAP
00C000
00C000
00C000
00C000
00C000
00C000
E0C1C0
FCCFC0
1FFE00
03F000
01E000
03F000
073000
061800
0E1C00
1C0E00
180600
ENDCHAR
STARTCHAR 002B
ENCODING 43
SWIDTH 600 0
DWIDTH 30 0
BBX 22 24 4 2
BITMAP
003000
003000
003000
003000
003000
003000
003000
003000
003000
003000
003000
FFFFFC
FFFFFC
003000
003000
003000
003000
003000
003000
003000
003000
003000
003000
003000
ENDCHAR
STARTCHAR 002C
ENCODING 44
SWIDTH 600 0
DWIDTH 30 0
BBX 10 15 7 -7
BITMAP
1FC0
1F80
1F80
1F00
3F00
3E00
3E00
3C00
7C00
7800
7800
F000
F000
E000
C000
ENDCHAR
STARTCHAR 002D
ENCODING 45
SWIDTH 600 0
DWIDTH 30 0
BBX 22 2 4 13
BITMAP
FFFFFC
FFFFFC
ENDCHAR
STARTCHAR 002E
ENCODING 46
SWIDTH 600 0
DWIDTH 30 0
BBX 7 7 11 -1
BITMAP
38
7C
FE
FE
FE
7C
38
ENDCHAR
STARTCHAR 002F
ENCODING 47
SWIDTH 600 0
DWIDTH 30 0
BBX 18 37 6 -4
BITMAP
0000C0
0000C0
0001C0
000180
000380
000300
000700
000600
000E00
000C00
000C00
001800
001800
003000
003000
006000
006000
00C000
00C000
01C000
018000
038000
030000
070000
060000
0E0000
0C0000
0C0000
180000
180000
300000
300000
600000
600000
E00000
C00000
C00000
ENDCHAR
STARTCHAR 0030
ENCODING 48
SWIDTH 600 0
DWIDTH 30 0
BBX 18 32 6 -1
BITMAP
03F000
07F800
1E1C00
180600
300300
300300
600180
600180
600180
C000C0
C000C0
C000C0
C000C0
C000C0
C000C0
C000C0
C000C0
C000C0
C000C0
C000C0
C000C0
C000C0
C000C0
600180
600180
600180
700300
300300
180600
1E1E00
0FF800
03F000
ENDCHAR
STARTCHAR 0031
ENCODING 49
SWIDTH 600 0
DWIDTH 30 0
BBX 18 31 6 0
BITMAP
00C000
07C000
3FC000
FCC000
C0C000
00C000
00C000
00C000
00C000
00C000
00C000
00C000
00C000
00C000
00C000
00C000
00C000
00C000
00C000
00C000
00C000
00C000
00C000
00C000
00C000
00C000
00C000
00C000
00C000
FFFFC0
FFFFC0
ENDCHAR
STARTCHAR 0032
ENCODING 50
SWIDTH 600 0
DWIDTH 30 0
BBX 20 31 4 0
BITMAP
01F800
07FF00
0F0780
1C01C0
3000E0
700060
600070
600030
000030
000030
000060
000060
0000C0
0001C0
000380
000700
000E00
001C00
003800
007000
00E000
01C000
038000
070000
0E0000
1C0000
300030
600030
C00030
FFFFF0
FFFFF0
ENDCHAR
STARTCHAR 0033
ENCODING 51
SWIDTH 600 0
DWIDTH 30 0
BBX 20 32 5 -1
BITMAP
01F800
0FFF00
1E0780
3801C0
7000C0
000060
000060
000060
000060
000060
0000C0
0001C0
000780
00FE00
00FC00
000F00
000380
0000C0
000060
000060
000030
000030
000030
000030
000030
000070
000060
C000E0
F001C0
7C0780
1FFE00
03F800
ENDCHAR
STARTCHAR 0034
ENCODING 52
SWIDTH 600 0
DWIDTH 30 0
BBX 18 30 6 0
BITMAP
003E00
003E00
006600
006600
00C600
00C600
018600
038600
030600
060600
060600
0C0600
0C0600
180600
180600
300600
700600
600600
E00600
C00600
FFFFC0
FFFFC0
000600
000600
000600
000600
000600
000600
00FFC0
00FFC0
ENDCHAR
STARTCHAR 0035
ENCODING 53
SWIDTH 600 0
DWIDTH 30 0
BBX 20 31 5 -1
BITMAP
3FFF80
3FFF80
300000
300000
300000
300000
300000
300000
300000
300000
300000
31FC00
3FFF00
3E0380
3001C0
0000E0
000060
000030
000030
000030
000030
000030
000030
000070
000060
800060
C000C0
F001C0
3C0F80
1FFE00
03F800
ENDCHAR
STARTCHAR 0036
ENCODING 54
SWIDTH 600 0
DWIDTH 30 0
BBX 18 32 7 -1
BITMAP
001F80
00FFC0
01E000
078000
0E0000
1C0000
180000
380000
300000
600000
600000
600000
C00000
C1F800
C3FC00
CF0E00
CC0300
D80380
F00180
F000C0
E000C0
E000C0
6000C0
6000C0
6000C0
7001C0
300180
380380
1C0300
0E0E00
07FC00
01F000
ENDCHAR
STARTCHAR 0037
ENCODING 55
SWIDTH 600 0
DWIDTH 30 0
BBX 19 30 5 0
BITMAP
FFFFE0
FFFFE0
C00060
C00060
C000E0
0000C0
0000C0
0001C0
000180
000180
000180
000300
000300
000300
000600
000600
000600
000C00
000C00
000C00
001800
001800
001800
003000
003000
003000
007000
006000
006000
004000
ENDCHAR
STARTCHAR 0038
ENCODING 56
SWIDTH 600 0
DWIDTH 30 0
BBX 18 32 6 -1
BITMAP
03F000
0FF800
1E1E00
380600
300300
700380
600180
600180
600180
600180
600180
300300
180600
0C1C00
07F800
07F800
1C0E00
380700
700380
600180
C000C0
C000C0
C000C0
C000C0
C000C0
C000C0
600180
700380
380700
1C0E00
0FFC00
03F000
ENDCHAR
STARTCHAR 0039
ENCODING 57
SWIDTH 600 0
DWIDTH 30 0
BBX 19 32 7 -1
BITMAP
03F000
0FFC00
1C1E00
380700
700300
600180
E00180
C000C0
C000C0
C000C0
C000E0
C000E0
C001E0
6001E0
700360
380660
1C1C60
0FF860
03E060
0000E0
0000C0
0000C0
0001C0
000180
000380
000700
000E00
001C00
003800
01F000
FFC000
7F0000
ENDCHAR
STARTCHAR 003A
ENCODING 58
SWIDTH 600 0
DWIDTH 30 0
BBX 7 22 11 -1
BITMAP
38
7C
FE
FE
FE
7C
38
00
00
00
00
00
00
00
00
38
7C
FE
FE
FE
7C
38
ENDCHAR
STARTCHAR 003B
ENCODING 59
SWIDTH 600 0
DWIDTH 30 0
BBX 10 28 7 -8
BITMAP
0700
0F80
1FC0
1FC0
1FC0
0F80
0700
0000
0000
0000
0000
0000
0000
0000
1F80
1F80
1F00
3F00
3E00
3E00
3C00
7C00
7800
7800
F000
F000
E000
E000
ENDCHAR
STARTCHAR 003C
ENCODING 60
SWIDTH 600 0
DWIDTH 30 0
BBX 22 24 4 2
BITMAP
00000C
00003C
000078
0001E0
000780
001E00
007800
00F000
03C000
0F0000
3C0000
F00000
780000
3C0000
0F0000
03C000
00F000
003C00
001E00
000780
0001E0
000078
00001C
00000C
ENDCHAR
STARTCHAR 003D
ENCODING 61
SWIDTH 600 0
DWIDTH 30 0
BBX 24 9 3 10
BITMAP
FFFFFF
FFFFFF
000000
000000
000000
000000
000000
FFFFFF
FFFFFF
ENDCHAR
STARTCHAR 003E
ENCODING 62
SWIDTH 600 0
DWIDTH 30 0
BBX 22 24 4 2
BITMAP
C00000
F00000
780000
1E0000
078000
01E000
00F800
003C00
000F00
0003C0
0000F0
00007C
000078
0001F0
0003C0
000F00
003C00
00F000
03E000
078000
1E0000
780000
E00000
800000
ENDCHAR
STARTCHAR 003F
ENCODING 63
SWIDTH 600 0
DWIDTH 30 0
BBX 17 30 7 -1
BITMAP
07F000
3FFC00
F81E00
E00700
C00300
C00180
C00180
000180
000180
000180
000300
000700
000E00
003C00
00F800
01E000
018000
018000
018000
018000
000000
000000
000000
000000
000000
07C000
0FE000
0FE000
0FE000
07C000
ENDCHAR
STARTCHAR 0040
ENCODING 64
SWIDTH 600 0
DWIDTH 30 0
BBX 19 34 5 -3
BITMAP
01F800
07FE00
0E0F00
1C0380
380180
3000C0
6000C0
6000C0
6000C0
C000C0
C00FC0
C03FC0
C078C0
C0E0C0
C0C0C0
C180C0
C180C0
C180C0
C180C0
C180C0
C0C0C0
C0F0C0
C07FE0
C01FE0
C00000
600000
600000
600000
300000
380000
1C0080
0E0380
07FF00
01FC00
ENDCHAR
STARTCHAR 0041
ENCODING 65
SWIDTH 600 0
DWIDTH 30 0
BBX 28 28 1 0
BITMAP
0FFF0000
0FFF0000
001B0000
00198000
00318000
0031C000
0030C000
0060C000
00606000
00E06000
00C06000
00C03000
01803000
01803800
01801800
03001800
03000C00
07FFFC00
07FFFC00
06000600
0C000600
0C000700
0C000300
18000300
18000180
18000180
FF803FF0
FF803FF0
ENDCHAR
STARTCHAR 0042
ENCODING 66
SWIDTH 600 0
DWIDTH 30 0
BBX 25 28 2 0
BITMAP
FFFFC000
FFFFF000
0C007800
0C001C00
0C000C00
0C000600
0C000600
0C000600
0C000600
0C000C00
0C001C00
0C007800
0FFFE000
0FFFF000
0C003C00
0C000E00
0C000700
0C000300
0C000180
0C000180
0C000180
0C000180
0C000380
0C000300
0C000700
0C001E00
FFFFFC00
FFFFF000
ENDCHAR
STARTCHAR 0043
ENCODING 67
SWIDTH 600 0
DWIDTH 30 0
BBX 24 30 3 -1
BITMAP
007F00
03FFC6
0780F6
0E003E
1C001E
38000E
300006
600006
600006
E00000
C00000
C00000
C00000
C00000
C00000
C00000
C00000
C00000
C00000
C00000
600000
600000
700000
300003
180007
1C000E
0F001C
03C0F8
01FFE0
003F80
ENDCHAR
STARTCHAR 0044
ENCODING 68
SWIDTH 600 0
DWIDTH 30 0
BBX 24 28 2 0
BITMAP
FFFF00
FFFFC0
1801E0
180070
180018
18000C
18000E
180006
180006
180003
180003
180003
180003
180003
180003
180003
180003
180003
180003
180006
180006
18000E
18001C
180018
180078
1801E0
FFFFC0
FFFF00
ENDCHAR
STARTCHAR 0045
ENCODING 69
SWIDTH 600 0
DWIDTH 30 0
BBX 24 28 2 0
BITMAP
FFFFFE
FFFFFE
0C0006
0C0006
0C0006
0C0006
0C0006
0C0006
0C0000
0C0300
0C0300
0C0300
0FFF00
0FFF00
0C0300
0C0300
0C0300
0C0000
0C0000
0C0003
0C0003
0C0003
0C0003
0C0003
0C0003
0C0003
FFFFFF
FFFFFF
ENDCHAR
STARTCHAR 0046
ENCODING 70
SWIDTH 600 0
DWIDTH 30 0
BBX 24 28 2 0
BITMAP
FFFFFF
FFFFFF
0C0003
0C0003
0C0003
0C0003
0C0003
0C0003
0C0000
0C0300
0C0300
0C0300
0FFF00
0FFF00
0C0300
0C0300
0C0300
0C0000
0C0000
0C0000
0C0000
0C0000
0C0000
0C0000
0C0000
0C0000
FFFC00
FFFC00
ENDCHAR
STARTCHAR 0047
ENCODING 71
SWIDTH 600 0
DWIDTH 30 0
BBX 25 30 3 -1
BITMAP
007F8000
01FFE600
0780FE00
0E001E00
1C000E00
38000600
30000600
70000600
60000000
E0000000
C0000000
C0000000
C0000000
C0000000
C0000000
C0000000
C0000000
C007FF80
C007FF80
C0000600
C0000600
60000600
60000600
70000600
38000600
1C000600
0E000600
07C03E00
01FFF800
007FC000
ENDCHAR
STARTCHAR 0048
ENCODING 72
SWIDTH 600 0
DWIDTH 30 0
BBX 24 28 3 0
BITMAP
7F81FE
7F81FE
180018
180018
180018
180018
180018
180018
180018
180018
180018
180018
1FFFF8
1FFFF8
180018
180018
180018
180018
180018
180018
180018
180018
180018
180018
180018
180018
FF81FF
FF81FF
ENDCHAR
STARTCHAR 0049
ENCODING 73
SWIDTH 600 0
DWIDTH 30 0
BBX 18 28 6 0
BITMAP
FFFFC0
FFFFC0
00C000
00C000
00C000
00C000
00C000
00C000
00C000
00C000
00C000
00C000
00C000
00C000
00C000
00C000
00C000
00C000
00C000
00C000
00C000
00C000
00C000
00C000
00C000
00C000
FFFFC0
FFFFC0
ENDCHAR
STARTCHAR 004A
ENCODING 74
SWIDTH 600 0
DWIDTH 30 0
BBX 25 29 4 -1
BITMAP
00FFFF80
00FFFF80
00006000
00006000
00006000
00006000
00006000
00006000
00006000
00006000
00006000
00006000
00006000
00006000
00006000
00006000
C0006000
C0006000
C0006000
C0006000
C0006000
C0006000
C000E000
C000C000
E001C000
70038000
3E0F0000
0FFE0000
03F80000
ENDCHAR
STARTCHAR 004B
ENCODING 75
SWIDTH 600 0
DWIDTH 30 0
BBX 26 28 2 0
BITMAP
FFE07F80
FFE07F80
0C000C00
0C001800
0C007000
0C00E000
0C01C000
0C038000
0C070000
0C0E0000
0C1C0000
0C300000
0CF80000
0DFE0000
0F8F0000
0F038000
0E01C000
0C00C000
0C00E000
0C006000
0C003000
0C003000
0C003800
0C001800
0C001C00
0C000C00
FFE00FC0
FFE007C0
ENDCHAR
STARTCHAR 004C
ENCODING 76
SWIDTH 600 0
DWIDTH 30 0
BBX 24 28 3 0
BITMAP
FFFC00
FFFC00
030000
030000
030000
030000
030000
030000
030000
030000
030000
030000
030000
030000
030000
030000
030000
030003
030003
030003
030003
030003
030003
030003
030003
030003
FFFFFF
FFFFFF
ENDCHAR
STARTCHAR 004D
ENCODING 77
SWIDTH 600 0
DWIDTH 30 0
BBX 29 28 1 0
BITMAP
7E0003F0
7E0007F0
1E0006C0
1B000CC0
1B000CC0
19801CC0
198018C0
18C018C0
18C030C0
18E030C0
186060C0
186060C0
1830C0C0
1830C0C0
1819C0C0
181980C0
180D80C0
180F00C0
180F00C0
180600C0
180000C0
180000C0
180000C0
180000C0
180000C0
180000C0
FFC01FF8
FFC01FF8
ENDCHAR
STARTCHAR 004E
ENCODING 78
SWIDTH 600 0
DWIDTH 30 0
BBX 27 28 1 0
BITMAP
FE007FE0
FF007FE0
0F000300
0D800300
0D800300
0CC00300
0CE00300
0C600300
0C300300
0C380300
0C180300
0C1C0300
0C0C0300
0C060300
0C070300
0C030300
0C038300
0C018300
0C00C300
0C00E300
0C006300
0C003300
0C003300
0C001B00
0C001F00
0C000F00
7FE00700
7FE00700
ENDCHAR
STARTCHAR 004F
ENCODING 79
SWIDTH 600 0
DWIDTH 30 0
BBX 24 30 3 -1
BITMAP
007E00
01FF80
0781E0
0E0070
1C0038
180018
30000C
30000C
600006
600006
E00006
C00003
C00003
C00003
C00003
C00003
C00003
C00003
C00003
E00007
600006
600006
70000C
30000C
180018
1C0038
0E0070
0781E0
01FF80
007E00
ENDCHAR
STARTCHAR 0050
ENCODING 80
SWIDTH 600 0
DWIDTH 30 0
BBX 23 28 2 0
BITMAP
FFFF80
FFFFE0
0C0070
0C0038
0C000C
0C000E
0C0006
0C0006
0C0006
0C0006
0C000E
0C001C
0C0038
0C00F0
0FFFE0
0FFF00
0C0000
0C0000
0C0000
0C0000
0C0000
0C0000
0C0000
0C0000
0C0000
0C0000
FFFC00
FFFC00
ENDCHAR
STARTCHAR 0051
ENCODING 81
SWIDTH 600 0
DWIDTH 30 0
BBX 24 34 3 -5
BITMAP
007E00
01FF80
0781E0
0E0070
1C0038
180018
30000C
30000C
600006
600006
600006
C00003
C00003
C00003
C00003
C00003
C00003
C00003
C00003
E00007
600006
600006
70000C
30000C
180018
1C0038
0E0070
0781E0
03FF80
00FE00
006000
01FF07
07FFFE
0700F8
ENDCHAR
STARTCHAR 0052
ENCODING 82
SWIDTH 600 0
DWIDTH 30 0
BBX 27 28 2 0
BITMAP
FFFF8000
FFFFE000
0C007800
0C001C00
0C000C00
0C000E00
0C000600
0C000600
0C000600
0C000E00
0C000C00
0C003800
0C00F000
0FFFC000
0FFF0000
0C038000
0C01C000
0C00E000
0C007000
0C003800
0C001800
0C001C00
0C000C00
0C000E00
0C000600
0C000300
FFE003E0
FFE001E0
ENDCHAR
STARTCHAR 0053
ENCODING 83
SWIDTH 600 0
DWIDTH 30 0
BBX 20 30 5 -1
BITMAP
01F800
0FFE60
1E07E0
3801E0
3000E0
7000E0
600060
600060
600000
600000
700000
380000
1E0000
0FC000
03FE00
003F80
0003C0
0000E0
000060
000030
000030
C00030
C00030
C00030
E00060
F000E0
F801C0
DE0780
CFFF00
01FC00
ENDCHAR
STARTCHAR 0054
ENCODING 84
SWIDTH 600 0
DWIDTH 30 0
BBX 22 28 4 0
BITMAP
FFFFFC
FFFFFC
C0300C
C0300C
C0300C
C0300C
C0300C
003000
003000
003000
003000
003000
003000
003000
003000
003000
003000
003000
003000
003000
003000
003000
003000
003000
003000
003000
0FFFC0
0FFFC0
ENDCHAR
STARTCHAR 0055
ENCODING 85
SWIDTH 600 0
DWIDTH 30 0
BBX 26 29 2 -1
BITMAP
FFC0FFC0
FFC0FFC0
18000600
18000600
18000600
18000600
18000600
18000600
18000600
18000600
18000600
18000600
18000600
18000600
18000600
18000600
18000600
18000600
18000600
18000600
18000600
18000600
0C000C00
0C000C00
06001800
07003800
03C0F000
00FFC000
003F0000
ENDCHAR
STARTCHAR 0056
ENCODING 86
SWIDTH 600 0
DWIDTH 30 0
BBX 28 28 1 0
BITMAP
FFC03FF0
FFC03FF0
18000180
18000180
18000180
0C000300
0C000300
0E000600
06000600
06000600
03000C00
03000C00
03801800
01801800
01801800
00C03000
00C03000
00E06000
00606000
00606000
0030C000
0030C000
00318000
00198000
00198000
001F0000
000F0000
000E0000
ENDCHAR
STARTCHAR 0057
ENCODING 87
SWIDTH 600 0
DWIDTH 30 0
BBX 28 28 1 0
BITMAP
FFC03FF0
FFC03FF0
300000C0
300000C0
300000C0
180000C0
180F0180
180F0180
180F0180
180F8180
18198180
18198180
18198180
1830C180
0C30C300
0C30C300
0C30C300
0C606300
0C606300
0C606300
0CC07300
0CC03300
06C03600
06C03600
07801E00
07801E00
07801E00
07001E00
ENDCHAR
STARTCHAR 0058
ENCODING 88
SWIDTH 600 0
DWIDTH 30 0
BBX 26 28 2 0
BITMAP
7F807F80
7F807F80
1C000E00
0C000C00
06001800
07003800
03807000
0180E000
00C0C000
00E18000
00738000
003F0000
001E0000
000C0000
001E0000
003F0000
00330000
00618000
00C1C000
01C0E000
03807000
03003000
06001800
0E001C00
1C000E00
18000600
FF807FC0
FF807FC0
ENDCHAR
STARTCHAR 0059
ENCODING 89
SWIDTH 600 0
DWIDTH 30 0
BBX 24 28 3 0
BITMAP
FF00FF
FF00FF
380018
180018
0C0030
0E0060
060060
0300C0
038180
01C180
00C300
00E700
007600
003C00
003C00
001800
001800
001800
001800
001800
001800
001800
001800
001800
001800
001800
07FFE0
07FFE0
ENDCHAR
STARTCHAR 005A
ENCODING 90
SWIDTH 600 0
DWIDTH 30 0
BBX 19 28 6 0
BITMAP
FFFF80
FFFF80
C00080
C00180
C00180
C00300
C00700
C00E00
C00C00
001800
003800
003000
006000
00E000
01C000
018000
038000
070000
060060
0C0060
1C0060
380060
300060
700060
E00060
C00060
FFFFE0
FFFFE0
ENDCHAR
STARTCHAR 005B
ENCODING 91
SWIDTH 600 0
DWIDTH 30 0
BBX 8 36 14 -6
BITMAP
FF
FF
C0
C0
C0
C0
C0
C0
C0
C0
C0
C0
C0
C0
C0
C0
C0
C0
C0
C0
C0
C0
C0
C0
C0
C0
C0
C0
C0
C0
C0
C0
C0
C0
FF
FF
ENDCHAR
STARTCHAR 005C
ENCODING 92
SWIDTH 600 0
DWIDTH 30 0
BBX 18 37 6 -4
BITMAP
C00000
C00000
E00000
600000
700000
300000
380000
180000
180000
0C0000
0C0000
060000
060000
030000
030000
018000
018000
00C000
00C000
00E000
006000
007000
003000
003800
001800
001800
000C00
000C00
000600
000600
000300
000300
000180
000180
0001C0
0000C0
0000C0
ENDCHAR
STARTCHAR 005D
ENCODING 93
SWIDTH 600 0
DWIDTH 30 0
BBX 8 36 8 -6
BITMAP
FF
FF
03
03
03
03
03
03
03
03
03
03
03
03
03
03
03
03
03
03
03
03
03
03
03
03
03
03
03
03
03
03
03
03
FF
FF
ENDCHAR
STARTCHAR 005E
ENCODING 94
SWIDTH 600 0
DWIDTH 30 0
BBX 18 12 6 19
BITMAP
00C000
01E000
03F000
073800
061800
0C0C00
1C0E00
380700
700380
600180
C000C0
C000C0
ENDCHAR
STARTCHAR 005F
ENCODING 95
SWIDTH 600 0
DWIDTH 30 0
BBX 32 2 -1 -6
BITMAP
FFFFFFFF
FFFFFFFF
ENDCHAR
STARTCHAR 0060
ENCODING 96
SWIDTH 600 0
DWIDTH 30 0
BBX 8 7 8 24
BITMAP
C0
E0
70
38
1C
0E
07
ENDCHAR
STARTCHAR 0061
ENCODING 97
SWIDTH 600 0
DWIDTH 30 0
BBX 23 23 4 -1
BITMAP
01FC00
1FFF00
1C0380
0000C0
000060
000060
000060
000060
000060
03FE60
0FFFE0
3E00E0
700060
600060
C00060
C00060
C00060
C000E0
C001E0
600760
781E7E
1FF87E
0FE000
ENDCHAR
STARTCHAR 0062
ENCODING 98
SWIDTH 600 0
DWIDTH 30 0
BBX 26 31 1 -1
BITMAP
FC000000
FC000000
0C000000
0C000000
0C000000
0C000000
0C000000
0C000000
0C0FC000
0C3FF800
0CF03C00
0DC00E00
0F800700
0F000380
0E000180
0E000180
0C0000C0
0C0000C0
0C0000C0
0C0000C0
0C0000C0
0C0000C0
0C0000C0
0E000180
0E000180
0F000300
0D800700
0DC00E00
FCF03C00
FC3FF800
000FC000
ENDCHAR
STARTCHAR 0063
ENCODING 99
SWIDTH 600 0
DWIDTH 30 0
BBX 23 23 4 -1
BITMAP
00FF00
03FFCC
0F01FC
1C003C
38001C
30000C
60000C
60000C
C00000
C00000
C00000
C00000
C00000
C00000
C00000
600000
600000
700006
38000E
1C003C
0F00F8
07FFE0
00FF00
ENDCHAR
STARTCHAR 0064
ENCODING 100
SWIDTH 600 0
DWIDTH 30 0
BBX 26 31 3 -1
BITMAP
0000FC00
0000FC00
00000C00
00000C00
00000C00
00000C00
00000C00
00000C00
00FC0C00
07FF0C00
0F03CC00
1C00EC00
38006C00
70003C00
60001C00
60001C00
C0000C00
C0000C00
C0000C00
C0000C00
C0000C00
C0000C00
C0000C00
60001C00
60001C00
30003C00
38006C00
1C00CC00
0F038FC0
07FF0FC0
00FC0000
ENDCHAR
STARTCHAR 0065
ENCODING 101
SWIDTH 600 0
DWIDTH 30 0
BBX 23 23 3 -1
BITMAP
00FE00
03FF80
0F01E0
1C0070
380038
300018
60000C
60000C
E00006
C00006
FFFFFE
FFFFFE
C00000
C00000
600000
600000
700000
300000
180006
0E001E
0780F8
03FFE0
007F00
ENDCHAR
STARTCHAR 0066
ENCODING 102
SWIDTH 600 0
DWIDTH 30 0
BBX 21 30 6 0
BITMAP
003FF0
00FFF8
01E000
018000
030000
030000
030000
030000
030000
7FFFC0
7FFFC0
030000
030000
030000
030000
030000
030000
030000
030000
030000
030000
030000
030000
030000
030000
030000
030000
030000
FFFFC0
FFFFC0
ENDCHAR
STARTCHAR 0067
ENCODING 103
SWIDTH 600 0
DWIDTH 30 0
BBX 25 31 3 -9
BITMAP
01F80000
07FE1F80
0F079F80
1C01D800
3800D800
30007800
60003800
60003800
C0001800
C0001800
C0001800
C0001800
C0001800
C0001800
C0001800
60003800
60003800
70007800
3800F800
1C01D800
0F079800
07FF1800
01F81800
00001800
00001800
00003800
00003000
00007000
0001E000
03FFC000
03FF0000
ENDCHAR
STARTCHAR 0068
ENCODING 104
SWIDTH 600 0
DWIDTH 30 0
BBX 25 30 2 0
BITMAP
FC000000
FC000000
0C000000
0C000000
0C000000
0C000000
0C000000
0C000000
0C1F8000
0C7FE000
0CE07000
0D803800
0F001800
0E000C00
0C000C00
0C000C00
0C000C00
0C000C00
0C000C00
0C000C00
0C000C00
0C000C00
0C000C00
0C000C00
0C000C00
0C000C00
0C000C00
0C000C00
7F807F80
7F807F80
ENDCHAR
STARTCHAR 0069
ENCODING 105
SWIDTH 600 0
DWIDTH 30 0
BBX 20 31 5 0
BITMAP
00E000
00E000
00E000
00E000
00E000
000000
000000
000000
000000
000000
3FE000
3FE000
006000
006000
006000
006000
006000
006000
006000
006000
006000
006000
006000
006000
006000
006000
006000
006000
006000
FFFFF0
FFFFF0
ENDCHAR
STARTCHAR 006A
ENCODING 106
SWIDTH 600 0
DWIDTH 30 0
BBX 15 40 8 -9
BITMAP
0038
0038
0038
0038
0038
0000
0000
0000
0000
0000
FFFE
FFFE
0006
0006
0006
0006
0006
0006
0006
0006
0006
0006
0006
0006
0006
0006
0006
0006
0006
0006
0006
0006
0006
0006
0006
000C
001C
0038
FFF0
FFC0
ENDCHAR
STARTCHAR 006B
ENCODING 107
SWIDTH 600 0
DWIDTH 30 0
BBX 24 30 3 0
BITMAP
FC0000
FC0000
0C0000
0C0000
0C0000
0C0000
0C0000
0C0000
0C0000
0C07F8
0C07F8
0C0380
0C0700
0C0E00
0C1C00
0C3000
0CE000
0DC000
0FE000
0F7000
0C3800
0C1C00
0C0E00
0C0700
0C0380
0C01C0
0C00E0
0C0070
FC01FF
FC01FF
ENDCHAR
STARTCHAR 006C
ENCODING 108
SWIDTH 600 0
DWIDTH 30 0
BBX 20 30 5 0
BITMAP
3FE000
3FE000
006000
006000
006000
006000
006000
006000
006000
006000
006000
006000
006000
006000
006000
006000
006000
006000
006000
006000
006000
006000
006000
006000
006000
006000
006000
006000
FFFFF0
FFFFF0
ENDCHAR
STARTCHAR 006D
ENCODING 109
SWIDTH 600 0
DWIDTH 30 0
BBX 29 22 1 0
BITMAP
00F03E00
F9F87F00
FB1CE380
1E0D81C0
1C0700C0
1C0700C0
180600C0
180600C0
180600C0
180600C0
180600C0
180600C0
180600C0
180600C0
180600C0
180600C0
180600C0
180600C0
180600C0
180600C0
FF07C0F8
FF07C0F8
ENDCHAR
STARTCHAR 006E
ENCODING 110
SWIDTH 600 0
DWIDTH 30 0
BBX 25 22 2 0
BITMAP
001F8000
7C7FE000
7CE07000
0D803800
0F001C00
0E000C00
0E000C00
0C000C00
0C000C00
0C000C00
0C000C00
0C000C00
0C000C00
0C000C00
0C000C00
0C000C00
0C000C00
0C000C00
0C000C00
0C000C00
FF807F80
FF807F80
ENDCHAR
STARTCHAR 006F
ENCODING 111
SWIDTH 600 0
DWIDTH 30 0
BBX 22 23 4 -1
BITMAP
00FC00
07FF00
0F03C0
1C00E0
380070
300030
600018
600018
C0000C
C0000C
C0000C
C0000C
C0000C
C0000C
C0000C
600018
600018
300030
380070
1C00E0
0F03C0
07FF80
00FC00
ENDCHAR
STARTCHAR 0070
ENCODING 112
SWIDTH 600 0
DWIDTH 30 0
BBX 26 31 1 -9
BITMAP
000FC000
FC3FF800
FC703C00
0CC00E00
0D800700
0F000300
0E000180
0E000180
0C0000C0
0C0000C0
0C0000C0
0C0000C0
0C0000C0
0C0000C0
0C0000C0
0E000180
0E000180
0F000300
0D800700
0DC00E00
0CF03C00
0C3FF800
0C0FC000
0C000000
0C000000
0C000000
0C000000
0C000000
0C000000
FFF00000
FFF00000
ENDCHAR
STARTCHAR 0071
ENCODING 113
SWIDTH 600 0
DWIDTH 30 0
BBX 26 31 3 -9
BITMAP
00FC0000
03FF0FC0
0F038FC0
1C00CC00
38006C00
30003C00
60001C00
60001C00
C0000C00
C0000C00
C0000C00
C0000C00
C0000C00
C0000C00
C0000C00
60001C00
60001C00
70003C00
38006C00
1C00EC00
0F03CC00
07FF0C00
00FC0C00
00000C00
00000C00
00000C00
00000C00
00000C00
00000C00
0003FFC0
0003FFC0
ENDCHAR
STARTCHAR 0072
ENCODING 114
SWIDTH 600 0
DWIDTH 30 0
BBX 23 22 4 0
BITMAP
0001F0
7F07F8
7F0E1C
031C0E
033804
036000
03C000
038000
030000
030000
030000
030000
030000
030000
030000
030000
030000
030000
030000
030000
FFFFC0
FFFFC0
ENDCHAR
STARTCHAR 0073
ENCODING 115
SWIDTH 600 0
DWIDTH 30 0
BBX 20 23 5 -1
BITMAP
03F800
0FFF60
3C07E0
3000E0
600060
600060
600060
700000
380000
1FC000
07FE00
003F80
0001E0
000060
000070
C00030
C00030
C00030
E00070
F000E0
FC03C0
CFFF80
03FC00
ENDCHAR
STARTCHAR 0074
ENCODING 116
SWIDTH 600 0
DWIDTH 30 0
BBX 23 29 2 -1
BITMAP
060000
060000
060000
060000
060000
060000
060000
FFFFE0
FFFFE0
060000
060000
060000
060000
060000
060000
060000
060000
060000
060000
060000
060000
060000
060000
060000
060000
03000E
03C07C
01FFF0
007F80
ENDCHAR
STARTCHAR 0075
ENCODING 117
SWIDTH 600 0
DWIDTH 30 0
BBX 25 22 2 -1
BITMAP
FC01FC00
FC01FC00
0C000C00
0C000C00
0C000C00
0C000C00
0C000C00
0C000C00
0C000C00
0C000C00
0C000C00
0C000C00
0C000C00
0C000C00
0C000C00
0C000C00
0C001C00
0C003C00
0600EC00
0783CF80
03FF0F80
00FC0000
ENDCHAR
STARTCHAR 0076
ENCODING 118
SWIDTH 600 0
DWIDTH 30 0
BBX 26 21 2 0
BITMAP
FFC0FFC0
FFC0FFC0
18000600
0C000C00
0C000C00
0E000C00
06001800
07001800
03003000
03003000
01806000
01806000
00C0C000
00C0C000
00E0C000
00618000
00718000
00330000
00330000
001E0000
001E0000
ENDCHAR
STARTCHAR 0077
ENCODING 119
SWIDTH 600 0
DWIDTH 30 0
BBX 26 21 2 0
BITMAP
FF003FC0
FF003FC0
30000300
30000300
30000300
100C0600
181E0600
181E0600
181E0600
183B0E00
0C330C00
0C330C00
0C618C00
0C618C00
06619800
06C0D800
06C0D800
06C0D800
03807800
03807000
03807000
ENDCHAR
STARTCHAR 0078
ENCODING 120
SWIDTH 600 0
DWIDTH 30 0
BBX 24 21 3 0
BITMAP
7F81FE
7F81FE
1C0038
0E0070
0700E0
0381C0
01C380
00E700
007E00
003C00
003C00
007E00
00E700
01C380
0381C0
0700E0
0E0070
1C0038
38001C
FF81FF
FF81FF
ENDCHAR
STARTCHAR 0079
ENCODING 121
SWIDTH 600 0
DWIDTH 30 0
BBX 24 30 3 -9
BITMAP
FF00FF
FF00FF
30000C
38000C
180018
1C0018
0C0030
0E0030
060060
070060
0300C0
0380C0
018180
01C180
00C300
00E300
006600
007600
003C00
003C00
001800
001800
003000
003000
006000
006000
00C000
00C000
FFFC00
FFFC00
ENDCHAR
STARTCHAR 007A
ENCODING 122
SWIDTH 600 0
DWIDTH 30 0
BBX 18 21 6 0
BITMAP
FFFF80
FFFF80
C00180
C00300
C00700
C00E00
001C00
003800
007000
006000
00C000
018000
030000
070000
0E0000
1C00C0
3800C0
7000C0
6000C0
FFFFC0
FFFFC0
ENDCHAR
STARTCHAR 007B
ENCODING 123
SWIDTH 600 0
DWIDTH 30 0
BBX 10 36 10 -6
BITMAP
01C0
07C0
0600
0C00
0C00
0C00
0C00
0C00
0C00
0C00
0C00
0C00
0C00
0C00
0C00
0C00
1800
F000
F000
1800
0C00
0C00
0C00
0C00
0C00
0C00
0C00
0C00
0C00
0C00
0C00
0C00
0C00
0600
07C0
01C0
ENDCHAR
STARTCHAR 007C
ENCODING 124
SWIDTH 600 0
DWIDTH 30 0
BBX 2 36 14 -7
BITMAP
C0
C0
C0
C0
C0
C0
C0
C0
C0
C0
C0
C0
C0
C0
C0
C0
C0
C0
C0
C0
C0
C0
C0
C0
C0
C0
C0
C0
C0
C0
C0
C0
C0
C0
C0
C0
ENDCHAR
STARTCHAR 007D
ENCODING 125
SWIDTH 600 0
DWIDTH 30 0
BBX 10 36 10 -6
BITMAP
E000
F800
1800
0C00
0C00
0C00
0C00
0C00
0C00
0C00
0C00
0C00
0C00
0C00
0C00
0C00
0600
03C0
03C0
0600
0C00
0C00
0C00
0C00
0C00
0C00
0C00
0C00
0C00
0C00
0C00
0C00
0C00
1800
F800
E000
ENDCHAR
STARTCHAR 007E
ENCODING 126
SWIDTH 600 0
DWIDTH 30 0
BBX 20 6 5 11
BITMAP
0F0000
3F8030
71E030
E078E0
C01FC0
000F00
ENDCHAR
STARTCHAR 00A0
ENCODING 160
SWIDTH 600 0
DWIDTH 30 0
BBX 0 0 0 0
BITMAP
ENDCHAR
STARTCHAR 00A1
ENCODING 161
SWIDTH 600 0
DWIDTH 30 0
BBX 6 32 12 -11
BITMAP
78
FC
FC
FC
78
00
00
00
00
00
00
00
30
30
30
30
30
30
30
30
70
78
78
78
78
78
78
78
78
78
78
30
ENDCHAR
STARTCHAR 00A2
ENCODING 162
SWIDTH 600 0
DWIDTH 30 0
BBX 17 32 6 -1
BITMAP
00C000
00C000
00C000
00C000
00C000
00C000
03F800
0FFF80
1E0F80
380380
700180
600180
E00180
C00000
C00000
C00000
C00000
C00000
E00000
600000
700000
380180
1E0780
0FFE00
03F800
00C000
00C000
00C000
00C000
00C000
00C000
00C000
ENDCHAR
STARTCHAR 00A3
ENCODING 163
SWIDTH 600 0
DWIDTH 30 0
BBX 22 29 4 0
BITMAP
00FC00
01FE00
038700
070180
0E0080
0C0000
0C0000
0C0000
0C0000
0C0000
0E0000
060000
060000
FFF800
FFF800
030000
030000
030000
030000
030000
030000
030000
060000
06000C
0E000C
0C000C
18001C
FFFFF8
7FFFF0
ENDCHAR
STARTCHAR 00A4
ENCODING 164
SWIDTH 600 0
DWIDTH 30 0
BBX 18 19 6 5
BITMAP
8000C0
C3F1C0
67FB80
3E1F00
380700
300300
700380
600180
600180
600180
600180
600180
300380
300300
380700
7E1F80
E7F9C0
C3F0C0
800040
ENDCHAR
STARTCHAR 00A5
ENCODING 165
SWIDTH 600 0
DWIDTH 30 0
BBX 24 28 3 0
BITMAP
FF00FF
FF00FF
38001C
180018
0C0030
0E0070
0600E0
0300C0
038180
018380
00C300
00E600
006E00
003C00
0FFFF0
0FFFF0
001800
001800
001800
0FFFF0
0FFFF0
001800
001800
001800
001800
001800
03FFC0
03FFC0
ENDCHAR
STARTCHAR 00A6
ENCODING 166
SWIDTH 600 0
DWIDTH 30 0
BBX 2 36 14 -7
BITMAP
C0
C0
C0
C0
C0
C0
C0
C0
C0
C0
C0
C0
C0
C0
C0
C0
00
00
00
00
C0
C0
C0
C0
C0
C0
C0
C0
C0
C0
C0
C0
C0
C0
C0
C0
ENDCHAR
STARTCHAR 00A7
ENCODING 167
SWIDTH 600 0
DWIDTH 30 0
BBX 24 33 3 -3
BITMAP
007FFC
01FFFC
03800C
03000C
06000C
06000C
060000
070000
1F8000
7FC000
F0E000
C07800
C01E00
C00780
6003E0
3800F0
1C003C
0F001E
03C006
00F003
007803
001E03
00070F
0003FE
0001F0
0000E0
000060
300060
300060
3000E0
3001C0
3FFF80
3FFE00
ENDCHAR
STARTCHAR 00A8
ENCODING 168
SWIDTH 600 0
DWIDTH 30 0
BBX 16 5 7 26
BITMAP
700E
F81F
F81F
F81F
700E
ENDCHAR
STARTCHAR 00A9
ENCODING 169
SWIDTH 600 0
DWIDTH 30 0
BBX 30 30 0 -1
BITMAP
001FE000
007FFC00
01F01E00
03800780
070001C0
0C0000C0
18000060
380F9870
301FF830
60387818
60703818
60E0181C
C0C0180C
C0C0000C
C0C0000C
C0C0000C
C0C0000C
C0C0000C
C0C0000C
60600818
60701818
70387838
301FF030
1807C070
1C0000E0
0E0001C0
07800780
01E01F00
00FFFC00
001FE000
ENDCHAR
STARTCHAR 00AA
ENCODING 170
SWIDTH 600 0
DWIDTH 30 0
BBX 14 15 8 14
BITMAP
0F80
3FE0
3070
0030
0030
0030
0FF0
3FF0
7030
E030
C030
C030
E0F0
7FFC
3F3C
ENDCHAR
STARTCHAR 00AB
ENCODING 171
SWIDTH 600 0
DWIDTH 30 0
BBX 24 21 3 0
BITMAP
001003
003007
00F00E
01E01C
03C038
078078
0F00F0
1E01E0
3E03C0
7C0780
F80F00
7C0780
3E03C0
1E01E0
0F00F0
078078
03C038
01E01C
00700E
003007
001003
ENDCHAR
STARTCHAR 00AC
ENCODING 172
SWIDTH 600 0
DWIDTH 30 0
BBX 22 13 4 9
BITMAP
FFFFFC
FFFFFC
00000C
00000C
00000C
00000C
00000C
00000C
00000C
00000C
00000C
00000C
00000C
ENDCHAR
STARTCHAR 00AD
ENCODING 173
SWIDTH 600 0
DWIDTH 30 0
BBX 22 2 4 13
BITMAP
FFFFFC
FFFFFC
ENDCHAR
STARTCHAR 00AE
ENCODING 174
SWIDTH 600 0
DWIDTH 30 0
BBX 30 30 0 -1
BITMAP
001FE000
007FFC00
01E01E00
03800780
0E0001C0
0C0000E0
18000060
30FFC030
30FFF038
60303818
60301818
C030180C
C030180C
C030700C
C03FE00C
C03FC00C
C030E00C
C030700C
C030301C
60301818
60300C18
30FC0F38
30FC0730
18000060
0C0000E0
060001C0
03800780
01E01E00
00FFFC00
001FE000
ENDCHAR
STARTCHAR 00AF
ENCODING 175
SWIDTH 600 0
DWIDTH 30 0
BBX 14 2 8 27
BITMAP
FFFC
FFFC
ENDCHAR
STARTCHAR 00B0
ENCODING 176
SWIDTH 600 0
DWIDTH 30 0
BBX 14 15 8 17
BITMAP
07C0
1FE0
3870
7038
6018
C00C
C00C
C00C
C00C
C00C
6018
7038
3870
1FE0
0FC0
ENDCHAR
STARTCHAR 00B1
ENCODING 177
SWIDTH 600 0
DWIDTH 30 0
BBX 22 26 4 0
BITMAP
003000
003000
003000
003000
003000
003000
003000
003000
003000
FFFFFC
FFFFFC
003000
003000
003000
003000
003000
003000
003000
003000
003000
000000
000000
000000
000000
FFFFFC
FFFFFC
ENDCHAR
STARTCHAR 00B2
ENCODING 178
SWIDTH 600 0
DWIDTH 30 0
BBX 12 18 8 13
BITMAP
0F80
1FC0
38E0
7070
6030
0030
0030
0060
00E0
01C0
0380
0700
0E00
3C00
7800
E030
FFF0
FFF0
ENDCHAR
STARTCHAR 00B3
ENCODING 179
SWIDTH 600 0
DWIDTH 30 0
BBX 12 18 9 13
BITMAP
1F00
7FC0
60C0
0060
0060
0060
00C0
07C0
0780
00E0
0060
0030
0030
0030
0070
E0E0
7FC0
1F00
ENDCHAR
STARTCHAR 00B4
ENCODING 180
SWIDTH 600 0
DWIDTH 30 0
BBX 8 7 14 25
BITMAP
03
07
0E
1C
38
70
C0
ENDCHAR
STARTCHAR 00B5
ENCODING 181
SWIDTH 600 0
DWIDTH 30 0
BBX 25 31 2 -10
BITMAP
FC01FC00
FC01FC00
0C000C00
0C000C00
0C000C00
0C000C00
0C000C00
0C000C00
0C000C00
0C000C00
0C000C00
0C000C00
0C000C00
0C000C00
0C000C00
0C000C00
0C001C00
0C003C00
0E00FC00
0F03CF80
0FFF8F80
0CFC0000
0C000000
0C000000
0C000000
0C000000
0C000000
0C000000
0C000000
0C000000
0C000000
ENDCHAR
STARTCHAR 00B6
ENCODING 182
SWIDTH 600 0
DWIDTH 30 0
BBX 22 33 4 -3
BITMAP
01FFFC
0FFFFC
3FB0C0
7C30C0
7830C0
F030C0
E030C0
E030C0
E030C0
E030C0
E030C0
E030C0
7030C0
7830C0
3F30C0
0FF0C0
01F0C0
0030C0
0030C0
0030C0
0030C0
0030C0
0030C0
0030C0
0030C0
0030C0
0030C0
0030C0
0030C0
0030C0
0030C0
0FF9FC
0FF9FC
ENDCHAR
STARTCHAR 00B7
ENCODING 183
SWIDTH 600 0
DWIDTH 30 0
BBX 7 7 11 11
BITMAP
38
7C
FE
FE
FE
7C
38
ENDCHAR
STARTCHAR 00B8
ENCODING 184
SWIDTH 600 0
DWIDTH 30 0
BBX 8 9 11 -9
BITMAP
18
18
1E
1F
03
03
C7
FE
3C
ENDCHAR
STARTCHAR 00B9
ENCODING 185
SWIDTH 600 0
DWIDTH 30 0
BBX 11 18 9 13
BITMAP
0200
1E00
7E00
6600
0600
0600
0600
0600
0600
0600
0600
0600
0600
0600
0600
0600
7FE0
FFE0
ENDCHAR
STARTCHAR 00BA
ENCODING 186
SWIDTH 600 0
DWIDTH 30 0
BBX 15 15 8 14
BITMAP
07C0
1FF0
3838
701C
600C
C006
C006
C006
C006
C006
600C
701C
3838
1FF0
07C0
ENDCHAR
STARTCHAR 00BB
ENCODING 187
SWIDTH 600 0
DWIDTH 30 0
BBX 24 21 3 0
BITMAP
C00C00
E00E00
700700
380780
1C03C0
0E01E0
0F00F0
078078
03C03C
01E03E
00F81F
01F03E
03E03C
078078
0F00F0
0E01E0
1C03C0
380780
700700
E00E00
C00C00
ENDCHAR
STARTCHAR 00BC
ENCODING 188
SWIDTH 600 0
DWIDTH 30 0
BBX 29 31 0 0
BITMAP
02000000
1E000000
7E000000
66000000
06000000
06000080
06000180
06000300
06000600
06000E00
06001C00
06003800
06007000
06006000
0600C070
060180F0
7FE380F0
FFE701B0
000E01B0
000C0330
00180630
00300630
00600C30
00E00C30
01C01FF8
01801FF8
03000030
06000030
00000030
000000F8
000000F8
ENDCHAR
STARTCHAR 00BD
ENCODING 189
SWIDTH 600 0
DWIDTH 30 0
BBX 28 31 1 0
BITMAP
02000000
1E000000
7E000000
66000000
06000000
06000200
06000700
06000E00
06000C00
06001800
06003000
06006000
0600E000
0601CF80
06039FC0
060338E0
7FE66070
FFEC6030
001C0030
00380030
00700060
006000E0
00C001C0
01800380
03000700
07000E00
0E003C00
0C007800
0000E030
0000FFF0
0000FFF0
ENDCHAR
STARTCHAR 00BE
ENCODING 190
SWIDTH 600 0
DWIDTH 30 0
BBX 29 31 0 0
BITMAP
1F000000
7FC00000
60C00000
00600000
00600000
00600080
00C00180
07C00300
07800600
00E00C00
00601C00
00303800
00307000
00306000
0070C070
E0E180F0
7FC380F0
1F0701B0
000E01B0
000C0330
00180630
00300630
00600C30
00E00C30
01C01FF8
03801FF8
03000030
06000030
00000030
000000F8
000000F8
ENDCHAR
STARTCHAR 00BF
ENCODING 191
SWIDTH 600 0
DWIDTH 30 0
BBX 17 30 6 -9
BITMAP
01F000
03F800
03F800
03F800
01F000
000000
000000
000000
000000
000000
00C000
00C000
00C000
00C000
03C000
0F8000
1E0000
380000
700000
600000
C00000
C00000
C00000
C00180
C00180
600180
700180
3C0F80
1FFE00
07F000
ENDCHAR
STARTCHAR 00C0
ENCODING 192
SWIDTH 600 0
DWIDTH 30 0
BBX 28 39 1 1
BITMAP
01C00000
00E00000
00700000
00380000
001C0000
000E0000
00060000
00000000
00000000
00000000
00000000
0FFF0000
0FFF0000
001B0000
00198000
00318000
0031C000
0030C000
0060C000
00606000
00E06000
00C06000
00C03000
01803000
01803800
01801800
03001800
03000C00
07FFFC00
07FFFC00
06000600
0C000600
0C000700
0C000300
18000300
18000180
18000180
FF803FF0
FF803FF0
ENDCHAR
STARTCHAR 00C1
ENCODING 193
SWIDTH 600 0
DWIDTH 30 0
BBX 28 39 1 1
BITMAP
0000C000
0003C000
00070000
000E0000
001C0000
00380000
00300000
00000000
00000000
00000000
00000000
0FFF0000
0FFF0000
001B0000
00198000
00318000
0031C000
0030C000
0060C000
00606000
00E06000
00C06000
00C03000
01803000
01803800
01801800
03001800
03000C00
07FFFC00
07FFFC00
06000600
0C000600
0C000700
0C000300
18000300
18000180
18000180
FF803FF0
FF803FF0
ENDCHAR
STARTCHAR 00C2
ENCODING 194
SWIDTH 600 0
DWIDTH 30 0
BBX 28 39 1 1
BITMAP
001C0000
003E0000
00770000
00E38000
01C1E000
03807000
02003000
00000000
00000000
00000000
00000000
0FFF0000
0FFF0000
001B0000
00198000
00318000
0031C000
0030C000
0060C000
00606000
00E06000
00C06000
00C03000
01803000
01803800
01801800
03001800
03000C00
07FFFC00
07FFFC00
06000600
0C000600
0C000700
0C000300
18000300
18000180
18000180
FF803FF0
FF803FF0
ENDCHAR
STARTCHAR 00C3
ENCODING 195
SWIDTH 600 0
DWIDTH 30 0
BBX 28 38 1 0
BITMAP
00F01000
03F83000
031E7000
060FE000
0603C000
00000000
00000000
00000000
00000000
00000000
0FFF0000
0FFF0000
001B0000
00198000
00318000
0031C000
0030C000
0060C000
00606000
00E06000
00C06000
00C03000
01803000
01803800
01801800
03001800
03000C00
07FFFC00
07FFFC00
06000600
0C000600
0C000700
0C000300
18000300
18000180
18000180
FF803FF0
FF803FF0
ENDCHAR
STARTCHAR 00C4
ENCODING 196
SWIDTH 600 0
DWIDTH 30 0
BBX 28 38 1 0
BITMAP
03807000
07C0F800
07C0F800
07C0F800
03807000
00000000
00000000
00000000
00000000
00000000
0FFF0000
0FFF0000
001B0000
00198000
00318000
0031C000
0030C000
0060C000
00606000
00E06000
00C06000
00C03000
01803000
01803800
01801800
03001800
03000C00
07FFFC00
07FFFC00
06000600
0C000600
0C000700
0C000300
18000300
18000180
18000180
FFC01FF0
FFC01FF0
ENDCHAR
STARTCHAR 00C5
ENCODING 197
SWIDTH 600 0
DWIDTH 30 0
BBX 28 41 1 0
BITMAP
001E0000
007F8000
00618000
00C0C000
00C0C000
00C0C000
00618000
007F8000
001E0000
00000000
00000000
00000000
00000000
07FF0000
07FF0000
001B0000
00198000
00318000
0031C000
0030C000
0060C000
00606000
00E06000
00C06000
00C03000
01803000
01803800
01801800
03001800
03000C00
07FFFC00
07FFFC00
06000600
0C000600
0C000700
0C000300
18000300
18000180
18000180
FFC03FF0
FFC03FF0
ENDCHAR
STARTCHAR 00C6
ENCODING 198
SWIDTH 600 0
DWIDTH 30 0
BBX 28 28 1 0
BITMAP
07FFFFE0
07FFFFE0
00630060
00630060
00630060
00C30060
00C30060
00C30060
01C30000
01830000
01830C00
01830C00
0303FC00
0303FC00
03030C00
03030C00
06030000
07FF0000
07FF0000
0E030000
0C030030
0C030030
0C030030
18030030
18030030
18030030
FE3FFFF0
FE3FFFF0
ENDCHAR
STARTCHAR 00C7
ENCODING 199
SWIDTH 600 0
DWIDTH 30 0
BBX 23 38 3 -9
BITMAP
007F00
03FFC6
0780F6
0E003E
1C001E
38000E
300006
600006
600006
E00000
C00000
C00000
C00000
C00000
C00000
C00000
C00000
C00000
C00000
C00000
600000
600000
700000
300002
180006
1C000C
0F0018
07C0F0
01FFE0
007F00
001800
001E00
001F00
000300
000300
00C700
00FE00
003C00
ENDCHAR
STARTCHAR 00C8
ENCODING 200
SWIDTH 600 0
DWIDTH 30 0
BBX 24 39 2 1
BITMAP
018000
01C000
00F000
003800
001C00
000E00
000600
000000
000000
000000
000000
FFFFFE
FFFFFE
0C0006
0C0006
0C0006
0C0006
0C0006
0C0006
0C0000
0C0300
0C0300
0C0300
0FFF00
0FFF00
0C0300
0C0300
0C0300
0C0000
0C0000
0C0003
0C0003
0C0003
0C0003
0C0003
0C0003
0C0003
FFFFFF
FFFFFF
ENDCHAR
STARTCHAR 00C9
ENCODING 201
SWIDTH 600 0
DWIDTH 30 0
BBX 24 39 2 1
BITMAP
0000C0
000380
000700
000E00
001C00
003800
003000
000000
000000
000000
000000
FFFFFE
FFFFFE
0C0006
0C0006
0C0006
0C0006
0C0006
0C0006
0C0000
0C0300
0C0300
0C0300
0FFF00
0FFF00
0C0300
0C0300
0C0300
0C0000
0C0000
0C0003
0C0003
0C0003
0C0003
0C0003
0C0003
0C0003
FFFFFF
FFFFFF
ENDCHAR
STARTCHAR 00CA
ENCODING 202
SWIDTH 600 0
DWIDTH 30 0
BBX 24 39 2 1
BITMAP
001C00
003E00
007700
00E380
01C1E0
078070
060030
000000
000000
000000
000000
FFFFFE
FFFFFE
0C0006
0C0006
0C0006
0C0006
0C0006
0C0006
0C0000
0C0300
0C0300
0C0300
0FFF00
0FFF00
0C0300
0C0300
0C0300
0C0000
0C0000
0C0003
0C0003
0C0003
0C0003
0C0003
0C0003
0C0003
FFFFFF
FFFFFF
ENDCHAR
STARTCHAR 00CB
ENCODING 203
SWIDTH 600 0
DWIDTH 30 0
BBX 24 38 2 0
BITMAP
070070
0F80F8
0F80F8
0F80F8
070070
000000
000000
000000
000000
000000
FFFFFE
FFFFFE
0C0006
0C0006
0C0006
0C0006
0C0006
0C0006
0C0000
0C0300
0C0300
0C0300
0FFF00
0FFF00
0C0300
0C0300
0C0300
0C0000
0C0000
0C0003
0C0003
0C0003
0C0003
0C0003
0C0003
0C0003
FFFFFF
FFFFFF
ENDCHAR
STARTCHAR 00CC
ENCODING 204
SWIDTH 600 0
DWIDTH 30 0
BBX 18 39 6 1
BITMAP
0C0000
0E0000
070000
038000
00E000
007000
003000
000000
000000
000000
000000
FFFFC0
FFFFC0
00C000
00C000
00C000
00C000
00C000
00C000
00C000
00C000
00C000
00C000
00C000
00C000
00C000
00C000
00C000
00C000
00C000
00C000
00C000
00C000
00C000
00C000
00C000
00C000
FFFFC0
FFFFC0
ENDCHAR
STARTCHAR 00CD
ENCODING 205
SWIDTH 600 0
DWIDTH 30 0
BBX 18 39 6 1
BITMAP
000300
000700
001C00
003800
007000
00E000
00C000
000000
000000
000000
000000
FFFFC0
FFFFC0
00C000
00C000
00C000
00C000
00C000
00C000
00C000
00C000
00C000
00C000
00C000
00C000
00C000
00C000
00C000
00C000
00C000
00C000
00C000
00C000
00C000
00C000
00C000
00C000
FFFFC0
FFFFC0
ENDCHAR
STARTCHAR 00CE
ENCODING 206
SWIDTH 600 0
DWIDTH 30 0
BBX 18 39 6 1
BITMAP
00C000
01E000
07F800
0E1C00
1C0E00
380700
300300
000000
000000
000000
000000
FFFFC0
FFFFC0
00C000
00C000
00C000
00C000
00C000
00C000
00C000
00C000
00C000
00C000
00C000
00C000
00C000
00C000
00C000
00C000
00C000
00C000
00C000
00C000
00C000
00C000
00C000
00C000
FFFFC0
FFFFC0
ENDCHAR
STARTCHAR 00CF
ENCODING 207
SWIDTH 600 0
DWIDTH 30 0
BBX 18 38 6 0
BITMAP
380700
7C0F80
7C0F80
7C0F80
380700
000000
000000
000000
000000
000000
FFFFC0
FFFFC0
00C000
00C000
00C000
00C000
00C000
00C000
00C000
00C000
00C000
00C000
00C000
00C000
00C000
00C000
00C000
00C000
00C000
00C000
00C000
00C000
00C000
00C000
00C000
00C000
FFFFC0
FFFFC0
ENDCHAR
STARTCHAR 00D0
ENCODING 208
SWIDTH 600 0
DWIDTH 30 0
BBX 26 28 0 0
BITMAP
3FFFC000
3FFFF000
06007800
06001C00
06000600
06000300
06000380
06000180
06000180
060000C0
060000C0
060000C0
FFFF00C0
FFFF00C0
060000C0
060000C0
060000C0
060000C0
060000C0
06000180
06000180
06000380
06000700
06000600
06001C00
06007800
3FFFF000
3FFFC000
ENDCHAR
STARTCHAR 00D1
ENCODING 209
SWIDTH 600 0
DWIDTH 30 0
BBX 27 38 1 0
BITMAP
00780800
00FC1C00
018F3800
0387F000
0301E000
00000000
00000000
00000000
00000000
00000000
FE007FE0
FF007FE0
0F000300
0D800300
0D800300
0CC00300
0CE00300
0C600300
0C300300
0C380300
0C180300
0C1C0300
0C0C0300
0C060300
0C070300
0C030300
0C038300
0C018300
0C00C300
0C00E300
0C006300
0C003300
0C003300
0C001B00
0C001F00
0C000F00
7FE00700
7FE00700
ENDCHAR
STARTCHAR 00D2
ENCODING 210
SWIDTH 600 0
DWIDTH 30 0
BBX 24 40 3 0
BITMAP
038000
01C000
00E000
007000
003800
001C00
000C00
000000
000000
000000
007E00
01FF80
0781E0
0E0070
1C0038
180018
30000C
30000C
600006
600006
E00006
C00003
C00003
C00003
C00003
C00003
C00003
C00003
C00003
E00007
600006
600006
70000C
30000C
180018
1C0038
0E0070
0781E0
01FF80
007E00
ENDCHAR
STARTCHAR 00D3
ENCODING 211
SWIDTH 600 0
DWIDTH 30 0
BBX 24 40 3 0
BITMAP
0001C0
000380
000700
000E00
001C00
003800
003000
000000
000000
000000
007E00
01FF80
0781E0
0E0070
1C0038
180018
30000C
30000C
600006
600006
E00006
C00003
C00003
C00003
C00003
C00003
C00003
C00003
C00003
E00007
600006
600006
70000C
30000C
180018
1C0038
0E0070
0781E0
01FF80
007E00
ENDCHAR
STARTCHAR 00D4
ENCODING 212
SWIDTH 600 0
DWIDTH 30 0
BBX 24 40 3 0
BITMAP
001800
003C00
00FF00
01C380
0381C0
0700E0
060060
000000
000000
000000
007E00
01FF80
0781E0
0E0070
1C0038
180018
30000C
30000C
600006
600006
E00006
C00003
C00003
C00003
C00003
C00003
C00003
C00003
C00003
E00007
600006
600006
70000C
30000C
180018
1C0038
0E0070
0781E0
01FF80
007E00
ENDCHAR
STARTCHAR 00D5
ENCODING 213
SWIDTH 600 0
DWIDTH 30 0
BBX 24 39 3 -1
BITMAP
00E030
03F870
073CE0
060FC0
060780
000000
000000
000000
000000
007E00
01FF80
0781E0
0E0070
1C0038
180018
30000C
30000C
600006
600006
E00006
C00003
C00003
C00003
C00003
C00003
C00003
C00003
C00003
E00007
600006
600006
70000C
30000C
180018
1C0038
0E0070
0781E0
01FF80
007E00
ENDCHAR
STARTCHAR 00D6
ENCODING 214
SWIDTH 600 0
DWIDTH 30 0
BBX 24 39 3 -1
BITMAP
0700E0
0F81F0
0F81F0
0F81F0
0700E0
000000
000000
000000
000000
007E00
01FF80
0781E0
0E0070
1C0038
180018
30000C
30000C
600006
600006
E00006
C00003
C00003
C00003
C00003
C00003
C00003
C00003
C00003
E00007
600006
600006
70000C
30000C
180018
1C0038
0E0070
0781E0
01FF80
007E00
ENDCHAR
STARTCHAR 00D7
ENCODING 215
SWIDTH 600 0
DWIDTH 30 0
BBX 18 18 6 6
BITMAP
C000C0
E001C0
700380
380700
1C0E00
0E1C00
073800
03F000
01E000
01E000
03F000
073800
0E1C00
1C0E00
380700
700380
E001C0
C000C0
ENDCHAR
STARTCHAR 00D8
ENCODING 216
SWIDTH 600 0
DWIDTH 30 0
BBX 26 32 2 -3
BITMAP
000000C0
003F01C0
00FFC380
03C0F300
07003E00
0E001C00
0C001C00
18001E00
18003700
30006300
3000C300
7001C300
60018180
60030180
60060180
600C0180
601C0180
60180180
60300180
60600180
70E00380
31C00300
31800300
3B000600
1E000600
1E000C00
0E001C00
1F003800
33C0F000
60FFC000
E03F0000
C0000000
ENDCHAR
STARTCHAR 00D9
ENCODING 217
SWIDTH 600 0
DWIDTH 30 0
BBX 26 40 2 0
BITMAP
01C00000
00E00000
00700000
00380000
001C0000
00060000
00030000
00000000
00000000
00000000
00000000
FFC0FFC0
FFC0FFC0
18000600
18000600
18000600
18000600
18000600
18000600
18000600
18000600
18000600
18000600
18000600
18000600
18000600
18000600
18000600
18000600
18000600
18000600
18000600
18000600
0C000C00
0C000C00
06001800
07003800
03C0F000
00FFC000
003F0000
ENDCHAR
STARTCHAR 00DA
ENCODING 218
SWIDTH 600 0
DWIDTH 30 0
BBX 26 40 2 0
BITMAP
0000E000
0001C000
00038000
00070000
000E0000
00180000
00100000
00000000
00000000
00000000
00000000
FFC0FFC0
FFC0FFC0
18000600
18000600
18000600
18000600
18000600
18000600
18000600
18000600
18000600
18000600
18000600
18000600
18000600
18000600
18000600
18000600
18000600
18000600
18000600
18000600
0C000C00
0C000C00
06001800
07003800
03C0F000
00FFC000
003F0000
ENDCHAR
STARTCHAR 00DB
ENCODING 219
SWIDTH 600 0
DWIDTH 30 0
BBX 26 40 2 0
BITMAP
000C0000
001E0000
007F8000
00E1C000
01C0E000
03807000
03003000
00000000
00000000
00000000
00000000
FFC0FFC0
FFC0FFC0
18000600
18000600
18000600
18000600
18000600
18000600
18000600
18000600
18000600
18000600
18000600
18000600
18000600
18000600
18000600
18000600
18000600
18000600
18000600
18000600
0C000C00
0C000C00
06001800
07003800
03C0F000
00FFC000
003F0000
ENDCHAR
STARTCHAR 00DC
ENCODING 220
SWIDTH 600 0
DWIDTH 30 0
BBX 26 39 2 -1
BITMAP
03807000
07C0F800
07C0F800
07C0F800
03807000
00000000
00000000
00000000
00000000
00000000
FFC0FFC0
FFC0FFC0
18000600
18000600
18000600
18000600
18000600
18000600
18000600
18000600
18000600
18000600
18000600
18000600
18000600
18000600
18000600
18000600
18000600
18000600
18000600
18000600
0C000C00
0C000C00
06001800
07003800
03C0F000
00FFC000
003F0000
ENDCHAR
STARTCHAR 00DD
ENCODING 221
SWIDTH 600 0
DWIDTH 30 0
BBX 24 39 3 1
BITMAP
0001C0
000380
000700
000E00
001C00
003000
002000
000000
000000
000000
000000
FF00FF
FF00FF
380018
180018
0C0030
0E0060
060060
0300C0
038180
01C180
00C300
00E700
007600
003C00
003C00
001800
001800
001800
001800
001800
001800
001800
001800
001800
001800
001800
07FFE0
07FFE0
ENDCHAR
STARTCHAR 00DE
ENCODING 222
SWIDTH 600 0
DWIDTH 30 0
BBX 23 28 2 0
BITMAP
FFFC00
FFFC00
0C0000
0C0000
0C0000
0FFF80
0FFFE0
0C0070
0C0038
0C000C
0C000E
0C0006
0C0006
0C0006
0C0006
0C000E
0C001C
0C0038
0C00F0
0FFFE0
0FFF00
0C0000
0C0000
0C0000
0C0000
0C0000
FFFC00
FFFC00
ENDCHAR
STARTCHAR 00DF
ENCODING 223
SWIDTH 600 0
DWIDTH 30 0
BBX 23 31 2 -1
BITMAP
00FC00
01FF00
078380
0601C0
0C00E0
0C0060
0C0060
0C0060
0C0060
0C00C0
0C03C0
0C1F00
0C1F80
0C01E0
0C0070
0C0038
0C001C
0C000C
0C000E
0C0006
0C0006
0C0006
0C0006
0C0006
0C1806
0C180E
0C180C
0C1C1C
FF0E38
FF07F0
0003E0
ENDCHAR
STARTCHAR 00E0
ENCODING 224
SWIDTH 600 0
DWIDTH 30 0
BBX 23 33 4 -1
BITMAP
060000
070000
038000
01C000
00E000
007000
003800
000000
000000
000000
01FC00
1FFF00
1C0380
0000C0
000060
000060
000060
000060
000060
03FE60
0FFFE0
3E00E0
700060
600060
C00060
C00060
C00060
C000E0
C001E0
600760
781E7E
1FF87E
0FE000
ENDCHAR
STARTCHAR 00E1
ENCODING 225
SWIDTH 600 0
DWIDTH 30 0
BBX 23 33 4 -1
BITMAP
000300
000700
000E00
001C00
007000
00E000
00C000
000000
000000
000000
01FC00
1FFF00
1C0380
0000C0
000060
000060
000060
000060
000060
03FE60
0FFFE0
3E00E0
700060
600060
C00060
C00060
C00060
C000E0
C001E0
600760
781E7E
1FF87E
0FE000
ENDCHAR
STARTCHAR 00E2
ENCODING 226
SWIDTH 600 0
DWIDTH 30 0
BBX 23 33 4 -1
BITMAP
002000
007000
00F800
039E00
070700
0E0380
0C01C0
000000
000000
000000
01FC00
1FFF00
1C0380
0000C0
000060
000060
000060
000060
000060
03FE60
0FFFE0
3E00E0
700060
600060
C00060
C00060
C00060
C000E0
C001E0
600760
781E7E
1FF87E
0FE000
ENDCHAR
STARTCHAR 00E3
ENCODING 227
SWIDTH 600 0
DWIDTH 30 0
BBX 23 31 4 -1
BITMAP
03C0C0
0FF1C0
1C3F80
180F00
000000
000000
000000
000000
01FC00
1FFF00
1C0380
0000C0
000060
000060
000060
000060
000060
03FE60
0FFFE0
3E00E0
700060
600060
C00060
C00060
C00060
C000E0
C001E0
600760
781E7E
1FF87E
0FE000
ENDCHAR
STARTCHAR 00E4
ENCODING 228
SWIDTH 600 0
DWIDTH 30 0
BBX 23 32 4 -1
BITMAP
1C0380
3E07C0
3E07C0
3E07C0
1C0380
000000
000000
000000
000000
03FC00
3FFF00
3C0380
0000C0
0000E0
000060
000060
000060
000060
03FC60
0FFFE0
3C00E0
700060
600060
C00060
C00060
C00060
C000E0
C003E0
600760
703E7E
3FF87E
0FE000
ENDCHAR
STARTCHAR 00E5
ENCODING 229
SWIDTH 600 0
DWIDTH 30 0
BBX 23 34 4 -1
BITMAP
007800
01FC00
018E00
030600
030600
030600
018E00
01FC00
007000
000000
000000
01FC00
1FFF00
1C0380
0000C0
000060
000060
000060
000060
000060
03FE60
0FFFE0
3E00E0
700060
600060
C00060
C00060
C00060
C000E0
C001E0
600760
781E7E
1FF87E
07E000
ENDCHAR
STARTCHAR 00E6
ENCODING 230
SWIDTH 600 0
DWIDTH 30 0
BBX 28 23 1 -1
BITMAP
03E03C00
1FF8FF00
181CC380
000D8080
000780C0
00070040
00070040
00060060
00060020
07F60020
1FFFFFE0
3C0FFFE0
70060000
E0060000
C0060000
C0070000
C0070000
C00F0000
E01F8030
603FC070
3876E1E0
1FE67F80
0F801E00
ENDCHAR
STARTCHAR 00E7
ENCODING 231
SWIDTH 600 0
DWIDTH 30 0
BBX 22 31 4 -9
BITMAP
00FE00
03FF98
0F01F8
1C0078
380038
300018
600018
600018
C00000
C00000
C00000
C00000
C00000
C00000
C00000
600000
600000
70000C
38001C
1C0038
0F01F0
07FFC0
00FE00
003000
003C00
003E00
000600
000600
018E00
01FC00
007800
ENDCHAR
STARTCHAR 00E8
ENCODING 232
SWIDTH 600 0
DWIDTH 30 0
BBX 23 33 3 -1
BITMAP
010000
018000
00E000
007000
003800
001C00
000E00
000000
000000
000000
00FE00
03FF80
0F01E0
1C0070
380038
300018
60000C
60000C
E00006
C00006
FFFFFE
FFFFFE
C00000
C00000
600000
600000
700000
300000
180006
0E001E
0780F8
03FFE0
007F00
ENDCHAR
STARTCHAR 00E9
ENCODING 233
SWIDTH 600 0
DWIDTH 30 0
BBX 23 33 3 -1
BITMAP
000080
0001C0
000700
000E00
001C00
003800
007000
000000
000000
000000
00FE00
03FF80
0F01E0
1C0070
380038
300018
60000C
60000C
E00006
C00006
FFFFFE
FFFFFE
C00000
C00000
600000
600000
700000
300000
180006
0E001E
0780F8
03FFE0
007F00
ENDCHAR
STARTCHAR 00EA
ENCODING 234
SWIDTH 600 0
DWIDTH 30 0
BBX 23 33 3 -1
BITMAP
000800
003C00
007E00
00E700
01C3C0
0380E0
070060
000000
000000
000000
00FE00
03FF80
0F01E0
1C0070
380038
300018
60000C
60000C
E00006
C00006
FFFFFE
FFFFFE
C00000
C00000
600000
600000
700000
300000
180006
0E001E
0780F8
03FFE0
007F00
ENDCHAR
STARTCHAR 00EB
ENCODING 235
SWIDTH 600 0
DWIDTH 30 0
BBX 23 32 3 -1
BITMAP
0700E0
0F81F0
0F81F0
0F81F0
0700E0
000000
000000
000000
000000
00FE00
07FF80
0F03E0
1C0070
380030
700018
60001C
E0000C
C0000C
C00006
FFFFFE
FFFFFE
C00000
C00000
E00000
600000
700000
300000
38000C
1E001C
0780F8
03FFE0
00FF00
ENDCHAR
STARTCHAR 00EC
ENCODING 236
SWIDTH 600 0
DWIDTH 30 0
BBX 20 32 5 0
BITMAP
0C0000
0E0000
070000
038000
01C000
00E000
003000
000000
000000
000000
000000
3FE000
3FE000
006000
006000
006000
006000
006000
006000
006000
006000
006000
006000
006000
006000
006000
006000
006000
006000
006000
FFFFF0
FFFFF0
ENDCHAR
STARTCHAR 00ED
ENCODING 237
SWIDTH 600 0
DWIDTH 30 0
BBX 20 32 5 0
BITMAP
000600
000E00
001C00
003800
007000
01E000
018000
000000
000000
000000
000000
3FE000
3FE000
006000
006000
006000
006000
006000
006000
006000
006000
006000
006000
006000
006000
006000
006000
006000
006000
006000
FFFFF0
FFFFF0
ENDCHAR
STARTCHAR 00EE
ENCODING 238
SWIDTH 600 0
DWIDTH 30 0
BBX 20 32 5 0
BITMAP
004000
01E000
03F000
073800
0E1E00
1C0700
300300
000000
000000
000000
000000
3FE000
3FE000
006000
006000
006000
006000
006000
006000
006000
006000
006000
006000
006000
006000
006000
006000
006000
006000
006000
FFFFF0
FFFFF0
ENDCHAR
STARTCHAR 00EF
ENCODING 239
SWIDTH 600 0
DWIDTH 30 0
BBX 20 31 5 0
BITMAP
380700
7C0F80
7C0F80
7C0F80
380700
000000
000000
000000
000000
000000
3FE000
3FE000
006000
006000
006000
006000
006000
006000
006000
006000
006000
006000
006000
006000
006000
006000
006000
006000
006000
FFFFF0
FFFFF0
ENDCHAR
STARTCHAR 00F0
ENCODING 240
SWIDTH 600 0
DWIDTH 30 0
BBX 22 32 4 -1
BITMAP
0F0040
0FC1C0
01FF80
003E00
00FE00
03E700
010380
0001C0
0000C0
00FC60
07FF60
0F03F0
1C00F0
380078
300038
600018
60001C
C0000C
C0000C
C0000C
C0000C
C0000C
C0000C
C0000C
600018
600018
300030
380070
1C00E0
0F03C0
07FF80
00FC00
ENDCHAR
STARTCHAR 00F1
ENCODING 241
SWIDTH 600 0
DWIDTH 30 0
BBX 25 30 2 0
BITMAP
01E03000
03FC7000
071FE000
0403C000
00000000
00000000
00000000
00000000
001F8000
7C7FE000
7CE07000
0D803800
0F001C00
0E000C00
0E000C00
0C000C00
0C000C00
0C000C00
0C000C00
0C000C00
0C000C00
0C000C00
0C000C00
0C000C00
0C000C00
0C000C00
0C000C00
0C000C00
FF807F80
FF807F80
ENDCHAR
STARTCHAR 00F2
ENCODING 242
SWIDTH 600 0
DWIDTH 30 0
BBX 22 33 4 -1
BITMAP
020000
038000
01C000
00E000
007000
003800
001C00
000000
000000
000000
00FC00
07FF00
0F03C0
1C00E0
380070
300030
600018
600018
C0000C
C0000C
C0000C
C0000C
C0000C
C0000C
C0000C
600018
600018
300030
380070
1C00E0
0F03C0
07FF80
00FC00
ENDCHAR
STARTCHAR 00F3
ENCODING 243
SWIDTH 600 0
DWIDTH 30 0
BBX 22 33 4 -1
BITMAP
000100
000700
000E00
001C00
003800
007000
00E000
000000
000000
000000
00FC00
07FF00
0F03C0
1C00E0
380070
300030
600018
600018
C0000C
C0000C
C0000C
C0000C
C0000C
C0000C
C0000C
600018
600018
300030
380070
1C00E0
0F03C0
07FF80
00FC00
ENDCHAR
STARTCHAR 00F4
ENCODING 244
SWIDTH 600 0
DWIDTH 30 0
BBX 22 33 4 -1
BITMAP
002000
007800
00FC00
01CE00
038700
0F03C0
0C00C0
000000
000000
000000
00FC00
07FF00
0F03C0
1C00E0
380070
300030
600018
600018
C0000C
C0000C
C0000C
C0000C
C0000C
C0000C
C0000C
600018
600018
300030
380070
1C00E0
0F03C0
07FF80
00FC00
ENDCHAR
STARTCHAR 00F5
ENCODING 245
SWIDTH 600 0
DWIDTH 30 0
BBX 22 31 4 -1
BITMAP
03C060
07F0E0
0E1FC0
0C0F00
000000
000000
000000
000000
00FC00
07FF00
0F03C0
1C00E0
380070
300030
600018
600018
C0000C
C0000C
C0000C
C0000C
C0000C
C0000C
C0000C
600018
600018
300030
380070
1C00E0
0F03C0
07FF80
00FC00
ENDCHAR
STARTCHAR 00F6
ENCODING 246
SWIDTH 600 0
DWIDTH 30 0
BBX 22 32 4 -1
BITMAP
0E01C0
1F03E0
1F03E0
1F03E0
0E01C0
000000
000000
000000
000000
00FC00
07FF00
0F03C0
1C00E0
380070
300030
600018
600018
C0000C
C0000C
C0000C
C0000C
C0000C
C0000C
C0000C
600018
600018
300030
380070
1C00E0
0F03C0
07FF80
00FC00
ENDCHAR
STARTCHAR 00F7
ENCODING 247
SWIDTH 600 0
DWIDTH 30 0
BBX 22 26 4 1
BITMAP
003800
007C00
007C00
007C00
003800
000000
000000
000000
000000
000000
000000
000000
FFFFFC
FFFFFC
000000
000000
000000
000000
000000
000000
000000
003800
007C00
007C00
007C00
003800
ENDCHAR
STARTCHAR 00F8
ENCODING 248
SWIDTH 600 0
DWIDTH 30 0
BBX 24 25 3 -3
BITMAP
000001
007E07
03FF86
0781EC
0E0078
1C0038
180078
3000CC
30018C
600306
600606
600C06
601806
603006
606006
60C006
31800C
33000C
3E0018
1C0038
1E0070
3781E0
73FFC0
E07E00
C00000
ENDCHAR
STARTCHAR 00F9
ENCODING 249
SWIDTH 600 0
DWIDTH 30 0
BBX 25 33 2 -1
BITMAP
01800000
01C00000
00E00000
00700000
001C0000
000E0000
00060000
00000000
00000000
00000000
00000000
FC01FC00
FC01FC00
0C000C00
0C000C00
0C000C00
0C000C00
0C000C00
0C000C00
0C000C00
0C000C00
0C000C00
0C000C00
0C000C00
0C000C00
0C000C00
0C000C00
0C001C00
0C003C00
0600EC00
0783CF80
03FF0F80
00FC0000
ENDCHAR
STARTCHAR 00FA
ENCODING 250
SWIDTH 600 0
DWIDTH 30 0
BBX 25 33 2 -1
BITMAP
0000C000
0001C000
00038000
000E0000
001C0000
00380000
00700000
00000000
00000000
00000000
00000000
FC01FC00
FC01FC00
0C000C00
0C000C00
0C000C00
0C000C00
0C000C00
0C000C00
0C000C00
0C000C00
0C000C00
0C000C00
0C000C00
0C000C00
0C000C00
0C000C00
0C001C00
0C003C00
0600EC00
0783CF80
03FF0F80
00FC0000
ENDCHAR
STARTCHAR 00FB
ENCODING 251
SWIDTH 600 0
DWIDTH 30 0
BBX 25 33 2 -1
BITMAP
00080000
001C0000
003F0000
00F38000
01C1C000
0380E000
07007000
00000000
00000000
00000000
00000000
FC01FC00
FC01FC00
0C000C00
0C000C00
0C000C00
0C000C00
0C000C00
0C000C00
0C000C00
0C000C00
0C000C00
0C000C00
0C000C00
0C000C00
0C000C00
0C000C00
0C001C00
0C003C00
0600EC00
0783CF80
03FF0F80
00FC0000
ENDCHAR
STARTCHAR 00FC
ENCODING 252
SWIDTH 600 0
DWIDTH 30 0
BBX 25 32 2 -1
BITMAP
07007000
0F80F800
0F80F800
0F80F800
07007000
00000000
00000000
00000000
00000000
00000000
FC01FC00
FC01FC00
0C000C00
0C000C00
0C000C00
0C000C00
0C000C00
0C000C00
0C000C00
0C000C00
0C000C00
0C000C00
0C000C00
0C000C00
0C000C00
0C000C00
0C001C00
0C003C00
0600EC00
0703CF80
03FF0F80
00FC0000
ENDCHAR
STARTCHAR 00FD
ENCODING 253
SWIDTH 600 0
DWIDTH 30 0
BBX 24 41 3 -9
BITMAP
000060
0000E0
0001C0
000380
000700
000E00
001800
000000
000000
000000
000000
FF00FF
FF00FF
30000C
38000C
180018
1C0018
0C0030
0E0030
060060
070060
0300C0
0380C0
018180
01C180
00C300
00E300
006600
007600
003C00
003C00
001800
001800
003000
003000
006000
006000
00C000
00C000
FFFC00
FFFC00
ENDCHAR
STARTCHAR 00FE
ENCODING 254
SWIDTH 600 0
DWIDTH 30 0
BBX 26 38 1 -9
BITMAP
FC000000
FC000000
0C000000
0C000000
0C000000
0C000000
0C000000
0C0FE000
0C7FF800
0CF03C00
0DC00E00
0F800700
0F000380
0E000180
0E0001C0
0C0000C0
0C0000C0
0C0000C0
0C0000C0
0C0000C0
0E0001C0
0E000180
0F000380
0F800700
0DC00E00
0CF03C00
0C7FF800
0C0FE000
0C000000
0C000000
0C000000
0C000000
0C000000
0C000000
0C000000
0C000000
FFF00000
FFF00000
ENDCHAR
STARTCHAR 00FF
ENCODING 255
SWIDTH 600 0
DWIDTH 30 0
BBX 24 40 3 -9
BITMAP
0700E0
0F81F0
0F81F0
0F81F0
0700E0
000000
000000
000000
000000
000000
FF00FF
FF00FF
30000C
38000C
180018
1C0018
0C0030
0E0030
060060
070060
0300C0
0380C0
018180
01C180
00C300
00E300
006600
007600
003C00
003C00
001800
001800
003000
003000
006000
006000
00C000
00C000
FFFC00
FFFC00
ENDCHAR
STARTCHAR 0131
ENCODING 305
SWIDTH 600 0
DWIDTH 30 0
BBX 20 21 5 0
BITMAP
3FE000
3FE000
006000
006000
006000
006000
006000
006000
006000
006000
006000
006000
006000
006000
006000
006000
006000
006000
006000
FFFFF0
FFFFF0
ENDCHAR
STARTCHAR 0152
ENCODING 338
SWIDTH 600 0
DWIDTH 30 0
BBX 28 28 1 0
BITMAP
00FFFFE0
03FFFFE0
07830060
0E030060
18030060
30030060
70030060
60030060
60030060
C0030000
C0030C00
C0030C00
C003FC00
C003FC00
C0030C00
C0030C00
C0030000
C0030000
60030000
60030000
60030030
30030030
38030030
1C030030
0E030030
07830030
03FFFFF0
007FFFF0
ENDCHAR
STARTCHAR 0153
ENCODING 339
SWIDTH 600 0
DWIDTH 30 0
BBX 28 23 1 -1
BITMAP
07C03C00
0FE07F00
1C70C180
38398080
301B80C0
600F0040
600F0040
E00E0060
C0060020
C0060020
C007FFE0
C007FFE0
C0060000
C0060000
C0060000
600F0000
600F0000
600F8000
30198030
3839C070
1C70E1E0
0FE07F80
07C01F00
ENDCHAR
STARTCHAR 0237
ENCODING 567
SWIDTH 600 0
DWIDTH 30 0
BBX 15 30 8 -9
BITMAP
FFFE
FFFE
0006
0006
0006
0006
0006
0006
0006
0006
0006
0006
0006
0006
0006
0006
0006
0006
0006
0006
0006
0006
0006
0006
0006
000C
001C
0038
FFF0
FFC0
ENDCHAR
STARTCHAR 0E01
ENCODING 3585
SWIDTH 600 0
DWIDTH 30 0
BBX 20 22 5 0
BITMAP
01FC00
0FFF00
1FFF80
3C07C0
7001E0
E000E0
F80070
F80070
380070
700070
700070
700070
700070
700070
700070
700070
700070
700070
700070
700070
700070
700070
ENDCHAR
STARTCHAR 0E02
ENCODING 3586
SWIDTH 600 0
DWIDTH 30 0
BBX 19 22 7 0
BITMAP
1F80E0
7FE0E0
E7F0E0
C3F0E0
C378E0
E738E0
7E38E0
3C78E0
01F0E0
03E0E0
07C0E0
0F00E0
0F00E0
0E00E0
0E00E0
0E00E0
0E00E0
0E00E0
0E00E0
7FFFE0
7FFFE0
7FFFE0
ENDCHAR
STARTCHAR 0E03
ENCODING 3587
SWIDTH 600 0
DWIDTH 30 0
BBX 22 22 3 0
BITMAP
078C1C
0FDE1C
3FDF1C
7FFF9C
FE7B9C
FF7B9C
E3B39C
C1839C
C1871C
639F1C
7F3E1C
1E781C
00F01C
00E01C
00E01C
00E01C
00E01C
00E01C
00E01C
07FFFC
07FFFC
07FFFC
ENDCHAR
STARTCHAR 0E04
ENCODING 3588
SWIDTH 600 0
DWIDTH 30 0
BBX 22 22 3 0
BITMAP
00FE00
07FF80
1FFFE0
3F03F0
7C0078
700038
E0001C
E0781C
E0FC1C
E0CE1C
E1861C
E3861C
E3CE1C
E77C1C
EF781C
EE001C
FC001C
FC001C
F8001C
F8001C
F0001C
E0001C
ENDCHAR
STARTCHAR 0E05
ENCODING 3589
SWIDTH 600 0
DWIDTH 30 0
BBX 22 22 3 0
BITMAP
070380
1FCFE0
3FFFF0
7FFFF8
787878
F0003C
E0001C
E0781C
E0FC1C
E0CE1C
E1861C
E3861C
E3CE1C
E77C1C
EF781C
EE001C
FC001C
FC001C
F8001C
F8001C
F0001C
E0001C
ENDCHAR
STARTCHAR 0E06
ENCODING 3590
SWIDTH 600 0
DWIDTH 30 0
BBX 23 22 2 0
BITMAP
071C0E
1F9E0E
3FFE0E
7DFF0E
FCF70E
FE770E
E7670E
C30E0E
C31E0E
673C0E
7E380E
3C700E
00700E
07F00E
1FF00E
19F80E
18FE0E
187F8E
1867EE
0CE1FE
07C07E
03801E
ENDCHAR
STARTCHAR 0E07
ENCODING 3591
SWIDTH 600 0
DWIDTH 30 0
BBX 20 22 6 0
BITMAP
0007C0
000FF0
001CF0
001870
001870
201CF0
700FF0
F807F0
7C0070
3E0070
1F0070
0F8070
07C070
03E070
01F070
00F870
007C70
003E70
001F70
000FF0
0007F0
0003F0
ENDCHAR
STARTCHAR 0E08
ENCODING 3592
SWIDTH 600 0
DWIDTH 30 0
BBX 20 22 6 0
BITMAP
03FC00
0FFF00
1FFFC0
7C07E0
F801E0
7000F0
21F070
03F870
063C70
043C70
043E70
063E70
03F770
01E770
0003F0
0003F0
0003F0
0001F0
0001F0
0000F0
0000F0
000070
ENDCHAR
STARTCHAR 0E09
ENCODING 3593
SWIDTH 600 0
DWIDTH 30 0
BBX 24 22 3 0
BITMAP
03FC00
1FFF00
3FFFC0
FE03E0
7000E0
200070
000070
0F0070
1F8070
33C070
21C070
21C070
33C070
1FC070
0FC07E
01C07F
01C1F3
01C7E3
01FFE3
01FE66
01F87E
01E03C
ENDCHAR
STARTCHAR 0E0A
ENCODING 3594
SWIDTH 600 0
DWIDTH 30 0
BBX 18 25 4 1
BITMAP
0001C0
0001C0
0001C0
1F81C0
7FE180
E7F380
C3F380
C37B00
E73F00
7E3B80
3C79C0
01F1C0
03E1C0
07C1C0
0F81C0
0F01C0
0E01C0
0E01C0
0E01C0
0E01C0
0E01C0
0E01C0
7FFFC0
7FFFC0
7FFFC0
ENDCHAR
STARTCHAR 0E0B
ENCODING 3595
SWIDTH 600 0
DWIDTH 30 0
BBX 22 25 3 0
BITMAP
00001C
00001C
00001C
078C1C
1F9E3C
3FDE38
7EFF38
FE7778
FF77F0
E3A770
C18738
C19E1C
63BE1C
7F7C1C
3CF81C
00F01C
00E01C
00E01C
00E01C
00E01C
00E01C
00E01C
07FFFC
07FFFC
07FFFC
ENDCHAR
STARTCHAR 0E0C
ENCODING 3596
SWIDTH 600 0
DWIDTH 30 0
BBX 22 22 3 0
BITMAP
07E01C
1FF81C
3FFC1C
781E1C
700E1C
E00E1C
F80E1C
F80E1C
380E1C
700E1C
700E1C
700E1C
700E1C
700E1C
7E0E1C
7E3E1C
737F1C
73679C
7367DC
7367FC
7E3EFC
3C1C3C
ENDCHAR
STARTCHAR 0E0D
ENCODING 3597
SWIDTH 600 0
DWIDTH 30 0
BBX 22 30 3 -8
BITMAP
0FC01C
1FF01C
3FF81C
787C1C
701E1C
E00E1C
F80E1C
F80E1C
380E1C
700E1C
700E1C
700E1C
700E1C
700E1C
700E1C
7E0E1C
7F0E1C
730E1C
730E1C
730FFC
7E0FFC
1E0FFC
000000
000000
000000
000790
0008B8
0008F0
000FF0
0003C0
ENDCHAR
STARTCHAR 0E0E
ENCODING 3598
SWIDTH 600 0
DWIDTH 30 0
BBX 21 30 4 -9
BITMAP
007F00
01FFC0
07FFE0
0F80F0
0E0078
1C0038
1F0038
1F0038
070038
0E0038
0E0038
0E0038
0E0038
0E0038
7E0038
7E0038
CE0038
CE0038
CE0038
CE0038
7C0238
380338
000738
01FE38
03FE38
061F38
061FF8
063FF8
03F8F8
01F078
ENDCHAR
STARTCHAR 0E0F
ENCODING 3599
SWIDTH 600 0
DWIDTH 30 0
BBX 22 30 4 -9
BITMAP
007F00
01FFE0
07FFF0
0F8078
0E003C
1C001C
1F801C
1F801C
07001C
0E001C
0E001C
0E001C
0E001C
0E001C
3E001C
7E001C
CE001C
CE001C
CE001C
CE001C
7E001C
38381C
00701C
1F701C
3FE21C
63E39C
61FFDC
61FDFC
3F887C
1E003C
ENDCHAR
STARTCHAR 0E10
ENCODING 3600
SWIDTH 600 0
DWIDTH 30 0
BBX 23 31 3 -10
BITMAP
003FE0
00FFFC
01F07C
03FF08
03FFC0
03FFE0
0001F0
0000F8
000038
00001C
001E1C
003F1C
00731C
00619C
00619C
0073DC
003FDC
001CFC
00007C
00007C
00003C
00201C
003000
007038
3EE07E
7FE266
C3E766
C1FFFE
E3BDFE
7F087E
3E003E
ENDCHAR
STARTCHAR 0E11
ENCODING 3601
SWIDTH 600 0
DWIDTH 30 0
BBX 24 22 1 0
BITMAP
071C0F
1FBE0F
3FBE1F
7DFF3F
FCF73F
FEE777
E76777
C30FE7
C31FE7
677DC7
7EFBC7
3CE387
01E787
01C707
01CE07
01CE07
01DC07
01DC07
01F807
01F807
01F007
01F007
ENDCHAR
STARTCHAR 0E12
ENCODING 3602
SWIDTH 600 0
DWIDTH 30 0
BBX 23 22 3 1
BITMAP
06300E
1F7C0E
3FFE0E
7FFF0E
F1CF0E
E0078E
E0038E
E3C38E
E7E38E
EE738E
EC338E
EC338E
EC738E
E7E38E
E3E38E
E79F8E
EF3F8E
FE63CE
FC43EE
F8637E
F03E3E
E01C1E
ENDCHAR
STARTCHAR 0E13
ENCODING 3603
SWIDTH 600 0
DWIDTH 30 0
BBX 28 22 1 0
BITMAP
07E00E00
1FF80E00
3FFC0E00
7C3E0E00
700F0E00
F0070E00
FC070E00
FC070E00
18070E00
38070E00
38070E00
38070E00
38070E00
38070E00
3F070FC0
3F870FE0
39871E30
39873E30
39877E30
3987FE70
3F07CFE0
0E078780
ENDCHAR
STARTCHAR 0E14
ENCODING 3604
SWIDTH 600 0
DWIDTH 30 0
BBX 23 22 3 0
BITMAP
01FF80
0FFFE0
3FFFF8
7E00FC
78003C
F0001E
E0000E
E03C0E
E0FE0E
E1E70E
E1C30E
E1C30E
E1E70E
E0FE0E
E07E0E
E07C0E
E1F00E
E7E00E
FF800E
FE000E
FC000E
F0000E
ENDCHAR
STARTCHAR 0E15
ENCODING 3605
SWIDTH 600 0
DWIDTH 30 0
BBX 22 22 4 0
BITMAP
070380
1F8FE0
3FFFF0
7FFFF8
F8FC78
F0783C
E0001C
E0781C
E1FC1C
E3CE1C
E3861C
E3861C
E3CE1C
E1FC1C
E0FC1C
E1F81C
E3F01C
EFC01C
FF001C
FE001C
F8001C
E0001C
ENDCHAR
STARTCHAR 0E16
ENCODING 3606
SWIDTH 600 0
DWIDTH 30 0
BBX 20 22 6 0
BITMAP
03F800
0FFF00
1FFFC0
3C07E0
7000F0
E00070
F80070
F80070
380070
700070
700070
700070
700070
700070
7E0070
7F0070
738070
718070
718070
738070
3F0070
1E0070
ENDCHAR
STARTCHAR 0E17
ENCODING 3607
SWIDTH 600 0
DWIDTH 30 0
BBX 22 22 4 0
BITMAP
3C03E0
7E0FF8
EF1FF8
C71E3C
C73C1C
E7381C
7F381C
37781C
07701C
07701C
07F01C
07E01C
07E01C
07E01C
07C01C
07C01C
07C01C
07801C
07801C
07801C
07001C
07001C
ENDCHAR
STARTCHAR 0E18
ENCODING 3608
SWIDTH 600 0
DWIDTH 30 0
BBX 21 22 5 0
BITMAP
01FF00
0FFFF0
1FFFF8
3C00F0
700000
FFFE00
FFFFC0
FFFFE0
0007F0
000078
000038
038038
038038
038038
038038
038038
038038
038038
038038
1FFFF8
1FFFF8
1FFFF8
ENDCHAR
STARTCHAR 0E19
ENCODING 3609
SWIDTH 600 0
DWIDTH 30 0
BBX 25 22 3 0
BITMAP
3C00E000
7E00E000
E700E000
C700E000
C700E000
E700E000
7F00E000
3F00E000
0700E000
0700E000
0700E000
0700E000
0700FC00
0701FF00
0707FF00
070FF380
073FE180
07FEE180
07FCE180
07F07300
07E03F00
07801C00
ENDCHAR
STARTCHAR 0E1A
ENCODING 3610
SWIDTH 600 0
DWIDTH 30 0
BBX 22 22 3 0
BITMAP
3C001C
7E001C
E7001C
C7001C
C7001C
E7001C
7F001C
3F001C
07001C
07001C
07001C
07001C
07001C
07001C
07001C
07001C
07001C
07001C
07001C
1FFFFC
1FFFFC
1FFFFC
ENDCHAR
STARTCHAR 0E1B
ENCODING 3611
SWIDTH 600 0
DWIDTH 30 0
BBX 22 31 3 0
BITMAP
00001C
00001C
00001C
00001C
00001C
00001C
00001C
00001C
00001C
3C001C
7E001C
E7001C
C7001C
C7001C
E7001C
7F001C
3F001C
07001C
07001C
07001C
07001C
07001C
07001C
07001C
07001C
07001C
07001C
07001C
1FFFFC
1FFFFC
1FFFFC
ENDCHAR
STARTCHAR 0E1C
ENCODING 3612
SWIDTH 600 0
DWIDTH 30 0
BBX 20 22 6 0
BITMAP
3C0070
7E0070
F30070
E10070
E10070
F30070
FE0070
FC0070
E00070
E00070
E00070
E0F070
E1F070
E1F870
E3FC70
E79E70
E71E70
EF0F70
FE07F0
FC07F0
FC03F0
F801F0
ENDCHAR
STARTCHAR 0E1D
ENCODING 3613
SWIDTH 600 0
DWIDTH 30 0
BBX 20 31 6 0
BITMAP
000070
000070
000070
000070
000070
000070
000070
000070
000070
3C0070
7E0070
F30070
E10070
E10070
F30070
FE0070
FC0070
E00070
E00070
E00070
E0F070
E1F070
E1F870
E3FC70
E79E70
E71E70
EF0F70
FE07F0
FC07F0
FC03F0
F801F0
ENDCHAR
STARTCHAR 0E1E
ENCODING 3614
SWIDTH 600 0
DWIDTH 30 0
BBX 24 22 1 0
BITMAP
3C0707
7E0707
C70F07
870F87
870F87
C71F87
7F1DC7
3F1DC7
073DC7
073CE7
0738E7
0738E7
077877
077077
077077
07F03F
07E03F
07E03F
07E03F
07C01F
07C01F
07C01F
ENDCHAR
STARTCHAR 0E1F
ENCODING 3615
SWIDTH 600 0
DWIDTH 30 0
BBX 25 30 1 0
BITMAP
00000380
00000380
00000380
00000380
00000380
00000380
00000380
00000380
3C070380
7E070380
CF0F8380
870F8380
870F8380
CF1FC380
7F1DC380
3F1DC380
073CE380
073CE380
0738E380
07387380
07787380
07707380
07703B80
07F03B80
07E03B80
07E03F80
07E01F80
07C01F80
07C01F80
07C00F80
ENDCHAR
STARTCHAR 0E20
ENCODING 3616
SWIDTH 600 0
DWIDTH 30 0
BBX 25 22 1 0
BITMAP
000FE000
007FFC00
00FFFE00
03E01F00
03800780
07000380
07E00380
07E00380
01C00380
03800380
03800380
03800380
03800380
03800380
3F800380
7F800380
E7800380
C3800380
C3800380
E7800380
7F000380
3E000380
ENDCHAR
STARTCHAR 0E21
ENCODING 3617
SWIDTH 600 0
DWIDTH 30 0
BBX 19 22 6 0
BITMAP
3C00E0
7E00E0
C700E0
C700E0
C700E0
C700E0
7F00E0
3F00E0
0700E0
0700E0
0700E0
0700E0
0700E0
3F00E0
7F00E0
CFC0E0
C7F0E0
C3FCE0
C37FE0
670FE0
3E03E0
1C00E0
ENDCHAR
STARTCHAR 0E22
ENCODING 3618
SWIDTH 600 0
DWIDTH 30 0
BBX 17 22 9 0
BITMAP
3C0380
7E0380
F30380
E10380
E10380
F30380
FE0380
FC0380
E00380
E00380
E00380
300380
7C0380
FC0380
E00380
E00380
E00380
E00380
E00380
FFFF80
FFFF80
FFFF80
ENDCHAR
STARTCHAR 0E23
ENCODING 3619
SWIDTH 600 0
DWIDTH 30 0
BBX 20 22 6 0
BITMAP
03FE00
1FFFE0
3FFFF0
7C01E0
F00000
FFFC00
FFFF80
FFFFC0
000FE0
0000F0
000070
000070
000070
000070
0007F0
000FF0
001CF0
001870
001870
001CE0
000FE0
000780
ENDCHAR
STARTCHAR 0E24
ENCODING 3620
SWIDTH 600 0
DWIDTH 30 0
BBX 20 31 6 -9
BITMAP
03F800
0FFF00
1FFFC0
7C03E0
7000F0
E00070
F80070
F80070
380070
700070
700070
700070
700070
700070
7E0070
7F0070
738070
718070
718070
738070
3F0070
1E0070
000070
000070
000070
000070
000070
000070
000070
000070
000070
ENDCHAR
STARTCHAR 0E25
ENCODING 3621
SWIDTH 600 0
DWIDTH 30 0
BBX 19 22 6 0
BITMAP
03F800
1FFE00
7FFF80
F80FC0
E001E0
4000E0
0000E0
0000E0
0FC0E0
3FF0E0
7FF8E0
F83CE0
E01EE0
E00FE0
FC07E0
FE07E0
F603E0
E203E0
E201E0
F601E0
7C00E0
3C00E0
ENDCHAR
STARTCHAR 0E26
ENCODING 3622
SWIDTH 600 0
DWIDTH 30 0
BBX 22 31 4 -9
BITMAP
007F80
01FFE0
07FFF0
0F8078
0E003C
1C001C
1F001C
1F001C
07001C
0E001C
0E001C
0E001C
0E001C
0E001C
7E001C
7E001C
CE001C
8E001C
8E001C
CE001C
7C001C
38001C
00001C
00001C
00001C
00001C
00001C
00001C
00001C
00001C
00001C
ENDCHAR
STARTCHAR 0E27
ENCODING 3623
SWIDTH 600 0
DWIDTH 30 0
BBX 17 22 9 0
BITMAP
0FC000
3FF800
7FFC00
F83E00
E00F00
400700
000380
000380
000380
000380
000380
000380
000380
000380
003F80
007F80
00E780
00C380
00C380
00E700
007F00
003C00
ENDCHAR
STARTCHAR 0E28
ENCODING 3624
SWIDTH 600 0
DWIDTH 30 0
BBX 23 24 3 1
BITMAP
0000E0
0000E0
00FEE0
07FFC0
0FFFF0
3F01F8
7C007C
70001C
E0000E
E03C0E
E0FE0E
E0E70E
E1C30E
E3C30E
E3E70E
E77E0E
EF3C0E
EE000E
FC000E
FC000E
F8000E
F8000E
F0000E
E0000E
ENDCHAR
STARTCHAR 0E29
ENCODING 3625
SWIDTH 600 0
DWIDTH 30 0
BBX 25 22 3 1
BITMAP
3C001C00
7E001C00
E7001C00
C7001C00
C7001C00
C7001C00
7F1E1D00
3F3F1F80
07619F80
07619F80
0761BF00
0773FE00
073FFC00
070FFC00
07001C00
07001C00
07001C00
07001C00
07001C00
1FFFFC00
1FFFFC00
1FFFFC00
ENDCHAR
STARTCHAR 0E2A
ENCODING 3626
SWIDTH 600 0
DWIDTH 30 0
BBX 19 25 6 0
BITMAP
000700
000700
000700
03FF00
1FFE00
7FFF80
F80FC0
E001E0
4000E0
0000E0
0000E0
0FC0E0
3FF0E0
7FF8E0
F83CE0
E01EE0
E00FE0
FC07E0
FE07E0
F603E0
E203E0
E201E0
F601E0
7C00E0
3C00E0
ENDCHAR
STARTCHAR 0E2B
ENCODING 3627
SWIDTH 600 0
DWIDTH 30 0
BBX 22 22 3 0
BITMAP
3C01F0
7E03F8
E7071C
C7060C
C7060C
E7071C
7F03F8
3F01F8
0703F8
0707BC
070F1C
070E1C
071E1C
073C1C
07781C
07781C
07F01C
07E01C
07C01C
07C01C
07801C
07001C
ENDCHAR
STARTCHAR 0E2C
ENCODING 3628
SWIDTH 600 0
DWIDTH 30 0
BBX 32 31 1 1
BITMAP
00003C02
00007E07
0000EF0F
0000C71F
0000C73E
0000C7FC
00006FF8
00007FF0
00001FC0
3C070700
7E070700
C70F0700
870F8700
870F8700
C71F8700
7F1DC700
3F1DC700
073DC700
073CE700
0738E700
0738E700
07787700
07707700
07707700
07F03F00
07E03F00
07E03F00
07E03F00
07C01F00
07C01F00
07C01F00
ENDCHAR
STARTCHAR 0E2D
ENCODING 3629
SWIDTH 600 0
DWIDTH 30 0
BBX 17 22 8 0
BITMAP
07F000
1FFC00
7FFE00
F80F00
600780
000380
000380
000380
3C0380
7F0380
F38380
E18380
E18380
F38380
FF0380
FC0380
E00380
E00380
E00380
FFFF80
FFFF80
FFFF80
ENDCHAR
STARTCHAR 0E2E
ENCODING 3630
SWIDTH 600 0
DWIDTH 30 0
BBX 16 24 9 0
BITMAP
0007
0007
07E7
1FFE
7FFE
F81E
E00F
4007
0007
0007
0007
3C07
7E07
E307
E307
E307
FE07
FC07
E007
E007
E007
FFFF
FFFF
FFFF
ENDCHAR
STARTCHAR 0E2F
ENCODING 3631
SWIDTH 600 0
DWIDTH 30 0
BBX 20 22 3 0
BITMAP
3C0070
7E00F0
E703F0
C307F0
E73FF0
FFFF70
7FFE70
3FF870
1F8070
000070
000070
000070
000070
000070
000070
000070
000070
000070
000070
000070
0000E0
0001E0
ENDCHAR
STARTCHAR 0E30
ENCODING 3632
SWIDTH 600 0
DWIDTH 30 0
BBX 16 20 7 2
BITMAP
3C00
7E06
E70F
C31F
E77E
FFFC
7FF8
7FF0
1F80
0000
3C00
7E06
660F
C30F
C31E
E77E
FFFC
7FF8
3FE0
0F80
ENDCHAR
STARTCHAR 0E31
ENCODING 3633
SWIDTH 0 0
DWIDTH 0 0
BBX 16 9 -17 25
BITMAP
3C00
7E06
660F
C30F
C31E
E77C
FFF8
7FF0
1F80
ENDCHAR
STARTCHAR 0E32
ENCODING 3634
SWIDTH 600 0
DWIDTH 30 0
BBX 16 22 7 0
BITMAP
1F80
7FF0
FFF8
F07C
401E
000E
0007
0007
0007
0007
0007
0007
0007
0007
0007
0007
0007
0007
0007
0007
0007
0007
ENDCHAR
STARTCHAR 0E33
ENCODING 3635
SWIDTH 600 0
DWIDTH 30 0
BBX 20 31 3 0
BITMAP
3C0000
7E0000
E70000
C30000
C30000
C30000
E70000
7E0000
3C0000
03F800
07FF00
0FFF80
0F07C0
0401E0
0000E0
000070
000070
000070
000070
000070
000070
000070
000070
000070
000070
000070
000070
000070
000070
000070
000070
ENDCHAR
STARTCHAR 0E34
ENCODING 3636
SWIDTH 0 0
DWIDTH 0 0
BBX 17 8 -23 25
BITMAP
07F800
1FFE00
3FFF00
7C0F80
700380
700380
7FFF80
FFFF80
ENDCHAR
STARTCHAR 0E35
ENCODING 3637
SWIDTH 0 0
DWIDTH 0 0
BBX 19 9 -25 25
BITMAP
0FC0E0
3FF0E0
7FF8E0
787CE0
703CE0
F01EE0
F01FE0
FFFFE0
FFFFE0
ENDCHAR
STARTCHAR 0E36
ENCODING 3638
SWIDTH 0 0
DWIDTH 0 0
BBX 20 8 -25 25
BITMAP
0FC3C0
1FF7E0
3C7C30
783C30
701C30
601C70
FFFFE0
FFFF80
ENDCHAR
STARTCHAR 0E37
ENCODING 3639
SWIDTH 0 0
DWIDTH 0 0
BBX 18 8 -24 26
BITMAP
1F0CC0
3F8CC0
7BCCC0
60ECC0
E0FCC0
FFFFC0
FFFFC0
FFFFC0
ENDCHAR
STARTCHAR 0E38
ENCODING 3640
SWIDTH 0 0
DWIDTH 0 0
BBX 7 7 -12 -9
BITMAP
78
8E
8E
8E
7E
0E
0E
ENDCHAR
STARTCHAR 0E39
ENCODING 3641
SWIDTH 0 0
DWIDTH 0 0
BBX 12 8 -17 -11
BITMAP
7070
9870
9870
9870
7870
1FF0
1FF0
1FF0
ENDCHAR
STARTCHAR 0E3A
ENCODING 3642
SWIDTH 0 0
DWIDTH 0 0
BBX 6 6 -14 -11
BITMAP
78
FC
FC
FC
FC
78
ENDCHAR
STARTCHAR 0E3F
ENCODING 3647
SWIDTH 600 0
DWIDTH 30 0
BBX 25 34 2 -3
BITMAP
000C0000
000C0000
000C0000
FFFFC000
FFFFF000
0C0C7800
0C0C1C00
0C0C0C00
0C0C0600
0C0C0600
0C0C0600
0C0C0600
0C0C0600
0C0C0C00
0C0C1C00
0C0C7800
0FFFE000
0FFFF800
0C0C3C00
0C0C0600
0C0C0300
0C0C0380
0C0C0180
0C0C0180
0C0C0180
0C0C0180
0C0C0300
0C0C0700
0C0C1E00
FFFFFC00
FFFFF000
000C0000
000C0000
000C0000
ENDCHAR
STARTCHAR 0E40
ENCODING 3648
SWIDTH 600 0
DWIDTH 30 0
BBX 9 22 14 0
BITMAP
E000
E000
E000
E000
E000
E000
E000
E000
E000
E000
E000
E000
E000
E000
FE00
FF00
F380
E180
E180
F380
7F00
3E00
ENDCHAR
STARTCHAR 0E41
ENCODING 3649
SWIDTH 600 0
DWIDTH 30 0
BBX 20 22 6 0
BITMAP
E01C00
E01C00
E01C00
E01C00
E01C00
E01C00
E01C00
E01C00
E01C00
E01C00
E01C00
E01C00
E01C00
E01C00
FC1FC0
FE1FE0
E71E70
E31C30
E31C30
E71E70
7E0FE0
3C07C0
ENDCHAR
STARTCHAR 0E42
ENCODING 3650
SWIDTH 600 0
DWIDTH 30 0
BBX 20 34 3 0
BITMAP
01FF00
0FFFE0
3FFFF0
7C03F0
700020
E00000
FF8000
FFF000
FFF800
00F800
001C00
001C00
001C00
001C00
001C00
001C00
001C00
001C00
001C00
001C00
001C00
001C00
001C00
001C00
001C00
001C00
001FC0
001FE0
001E70
001C30
001C30
001E70
000FE0
0003C0
ENDCHAR
STARTCHAR 0E43
ENCODING 3651
SWIDTH 600 0
DWIDTH 30 0
BBX 21 34 2 0
BITMAP
07C000
1FF000
3FFC00
783C00
600E00
E00E00
FE0E00
FF8E00
F1CE00
E0CE00
E0CE00
71CE00
3F8E00
1E0E00
000E00
000E00
000E00
000E00
000E00
000E00
000E00
000E00
000E00
000E00
000E00
000E00
000FE0
000FF0
000E38
000E18
000E18
000E38
0007F0
0003E0
ENDCHAR
STARTCHAR 0E44
ENCODING 3652
SWIDTH 600 0
DWIDTH 30 0
BBX 22 33 2 0
BITMAP
001F80
603F80
F87F80
7CFB80
3FF380
1FE380
0FC380
030380
000380
000380
000380
000380
000380
000380
000380
000380
000380
000380
000380
000380
000380
000380
000380
000380
000380
0003F0
0003F8
0003CC
000384
000384
0003CC
0001F8
0000F0
ENDCHAR
STARTCHAR 0E45
ENCODING 3653
SWIDTH 600 0
DWIDTH 30 0
BBX 16 31 7 -9
BITMAP
1F80
7FF0
FFF8
F07C
401E
000E
0007
0007
0007
0007
0007
0007
0007
0007
0007
0007
0007
0007
0007
0007
0007
0007
0007
0007
0007
0007
0007
0007
0007
0007
0007
ENDCHAR
STARTCHAR 0E46
ENCODING 3654
SWIDTH 600 0
DWIDTH 30 0
BBX 16 28 7 -6
BITMAP
381C
7C3E
FE7F
FFFF
E7E7
E3C7
E007
EE07
FF07
F387
E187
6187
7387
3F07
1E07
0007
0007
0007
0007
0007
0007
0007
000F
000E
000E
000E
001C
0038
ENDCHAR
STARTCHAR 0E47
ENCODING 3655
SWIDTH 0 0
DWIDTH 0 0
BBX 15 11 -23 26
BITMAP
0006
001E
07FC
3FE0
7800
F000
E000
E184
F7CA
7EFA
1C3C
ENDCHAR
STARTCHAR 0E48
ENCODING 3656
SWIDTH 0 0
DWIDTH 0 0
BBX 3 8 -8 35
BITMAP
E0
E0
E0
E0
E0
E0
E0
E0
ENDCHAR
STARTCHAR 0E49
ENCODING 3657
SWIDTH 0 0
DWIDTH 0 0
BBX 14 10 -14 34
BITMAP
7000
7800
DC00
8C00
8C1C
DC1C
7C38
3C78
FFF0
FFC0
ENDCHAR
STARTCHAR 0E4A
ENCODING 3658
SWIDTH 0 0
DWIDTH 0 0
BBX 20 9 -20 35
BITMAP
3C3800
7E7C00
7FFE20
E7EE70
F9CEF0
E48FF0
E40FE0
640FC0
380F00
ENDCHAR
STARTCHAR 0E4B
ENCODING 3659
SWIDTH 0 0
DWIDTH 0 0
BBX 7 8 -11 35
BITMAP
38
38
38
FE
FE
38
38
38
ENDCHAR
STARTCHAR 0E4C
ENCODING 3660
SWIDTH 0 0
DWIDTH 0 0
BBX 11 9 -11 35
BITMAP
00C0
03C0
0FE0
3FC0
EF00
C400
C600
C600
3C00
ENDCHAR
STARTCHAR 0E4D
ENCODING 3661
SWIDTH 0 0
DWIDTH 0 0
BBX 8 8 -14 25
BITMAP
3C
7E
E7
C3
C3
E7
7E
3C
ENDCHAR
STARTCHAR 0E4E
ENCODING 3662
SWIDTH 0 0
DWIDTH 0 0
BBX 13 13 -15 26
BITMAP
0070
01F8
01F0
03C0
3B80
7F80
FF00
E700
E300
7380
7300
3800
3000
ENDCHAR
STARTCHAR 0E4F
ENCODING 3663
SWIDTH 600 0
DWIDTH 30 0
BBX 20 20 5 0
BITMAP
01FC00
07FF00
0FFF80
1F07C0
3C01C0
7801E0
70F0E0
F1FC70
E3FC70
E38E70
E38E70
E38E70
E1FC70
70F8E0
7000E0
3801C0
1C03C0
0F0780
07FF00
01FC00
ENDCHAR
STARTCHAR 0E50
ENCODING 3664
SWIDTH 600 0
DWIDTH 30 0
BBX 20 20 5 0
BITMAP
01F800
07FE00
1FFF00
1E0780
3C03C0
7801E0
7000E0
F000F0
E00070
E00070
E00070
E00070
E00070
F000F0
7000E0
7801E0
3C03C0
1E0F80
0FFF00
01F800
ENDCHAR
STARTCHAR 0E51
ENCODING 3665
SWIDTH 600 0
DWIDTH 30 0
BBX 20 20 5 0
BITMAP
03F800
0FFF00
1FFF80
3E0FC0
7C03C0
7801E0
7000E0
E000F0
E00070
E78070
EFC070
FC6070
F83070
F83070
7830E0
7830E0
3C71E0
3FE1C0
1FE1C0
078080
ENDCHAR
STARTCHAR 0E52
ENCODING 3666
SWIDTH 600 0
DWIDTH 30 0
BBX 22 22 3 0
BITMAP
400000
E00000
F00000
7838E0
3879F0
38FFB8
38EF9C
38E71C
38FC1C
38FE1C
38F71C
38E31C
38E31C
38F71C
387E1C
383C1C
38001C
38001C
38001C
3FFFFC
3FFFFC
3FFFFC
ENDCHAR
STARTCHAR 0E53
ENCODING 3667
SWIDTH 600 0
DWIDTH 30 0
BBX 20 20 5 0
BITMAP
1E0F00
3F1FC0
7F9FE0
F3F8E0
E1F070
E0F070
E0F070
E00070
E00070
E00070
E00070
FE0070
FF0070
F38070
E18070
E18070
E18070
F38070
7F0070
3C0070
ENDCHAR
STARTCHAR 0E54
ENCODING 3668
SWIDTH 600 0
DWIDTH 30 0
BBX 20 24 5 1
BITMAP
000020
000070
0000F0
0003E0
03FFC0
0FFF00
1FFC00
3C0000
780000
700000
E03C00
E07F00
E0F380
E0E180
E0E180
E0F380
E07F00
E07E00
703E00
700F00
7C0700
3FFFE0
1FFFE0
0FFFE0
ENDCHAR
STARTCHAR 0E55
ENCODING 3669
SWIDTH 600 0
DWIDTH 30 0
BBX 20 26 5 0
BITMAP
01E000
03F000
073820
0618F0
0619F0
0737E0
03FF80
0FFF00
3FFC00
3C0000
780000
700000
E03C00
E07F00
E0F380
E0E180
E0E180
E0E380
E07F00
E07C00
703E00
701E00
7C0F00
3FFFE0
1FFFE0
0FFFE0
ENDCHAR
STARTCHAR 0E56
ENCODING 3670
SWIDTH 600 0
DWIDTH 30 0
BBX 20 22 5 0
BITMAP
600000
E00000
700000
70FC00
73FF00
3FFF80
3F87C0
1E01E0
0001E0
0000E0
000070
01E070
03F070
07B870
071870
071870
07B8F0
07F0E0
03E1E0
03C7C0
01FF80
007E00
ENDCHAR
STARTCHAR 0E57
ENCODING 3671
SWIDTH 600 0
DWIDTH 30 0
BBX 23 20 3 0
BITMAP
1E1C0E
3F3F0E
7F3F8E
F3E18E
E3C1CE
E1C1CE
E1C1CE
E001CE
E001CE
E001CE
E001CE
FE01CE
FF01CE
F381DC
E181DC
E181DC
E181DC
F301F8
7F01F8
3C01F0
ENDCHAR
STARTCHAR 0E58
ENCODING 3672
SWIDTH 600 0
DWIDTH 30 0
BBX 22 24 4 1
BITMAP
000010
000030
000078
0001E0
03FFC0
0FFF80
1FFE00
3E0000
780000
700000
F00000
E00000
E000F0
E001F8
E003BC
E0031C
E0031C
E003BC
E0F9FC
71FCFC
71DC3C
3F9FF8
1F0FF0
0F07C0
ENDCHAR
STARTCHAR 0E59
ENCODING 3673
SWIDTH 600 0
DWIDTH 30 0
BBX 26 22 3 0
BITMAP
00000100
000003C0
000003C0
1E0F0780
7F9F8700
7FFFCF00
E3FFDE00
E1F1FE00
E1F1FC00
E1E0FC00
E0F0F800
E0F0F800
E0F07000
FE780000
FF780000
F3F80000
E1BC0000
E1BC0000
E1BC0000
F39E0000
7F1E0000
3C080000
ENDCHAR
STARTCHAR 0E5A
ENCODING 3674
SWIDTH 600 0
DWIDTH 30 0
BBX 19 22 3 0
BITMAP
3C1CE0
7E3CE0
E73CE0
C3FCE0
C3FCE0
E7FCE0
FFDCE0
7F1CE0
3C1CE0
001CE0
001CE0
001CE0
001CE0
001CE0
001CE0
001CE0
001CE0
001CE0
001CE0
001CE0
0039C0
007BC0
ENDCHAR
STARTCHAR 0E5B
ENCODING 3675
SWIDTH 600 0
DWIDTH 30 0
BBX 21 22 3 0
BITMAP
3C0000
7E0000
7E0000
E70000
E70000
E00000
E00000
E00000
E00000
E71C78
E71C78
E71FE0
E71F80
E73F00
E7F000
E7F000
E7E000
E70000
E70000
7E0000
7E0000
3C0000
ENDCHAR
STARTCHAR 200B
ENCODING 8203
SWIDTH 0 0
DWIDTH 0 0
BBX 0 0 0 0
BITMAP
ENDCHAR
STARTCHAR 200C
ENCODING 8204
SWIDTH 0 0
DWIDTH 0 0
BBX 0 0 0 0
BITMAP
ENDCHAR
STARTCHAR 200D
ENCODING 8205
SWIDTH 0 0
DWIDTH 0 0
BBX 0 0 0 0
BITMAP
ENDCHAR
STARTCHAR 200E
ENCODING 8206
SWIDTH 0 0
DWIDTH 0 0
BBX 0 0 0 0
BITMAP
ENDCHAR
STARTCHAR 200F
ENCODING 8207
SWIDTH 0 0
DWIDTH 0 0
BBX 0 0 0 0
BITMAP
ENDCHAR
STARTCHAR 2010
ENCODING 8208
SWIDTH 600 0
DWIDTH 30 0
BBX 16 2 7 13
BITMAP
FFFF
FFFF
ENDCHAR
STARTCHAR 2013
ENCODING 8211
SWIDTH 600 0
DWIDTH 30 0
BBX 22 2 4 13
BITMAP
FFFFFC
FFFFFC
ENDCHAR
STARTCHAR 2014
ENCODING 8212
SWIDTH 600 0
DWIDTH 30 0
BBX 30 2 0 13
BITMAP
FFFFFFFC
FFFFFFFC
ENDCHAR
STARTCHAR 2018
ENCODING 8216
SWIDTH 600 0
DWIDTH 30 0
BBX 10 13 13 17
BITMAP
FE00
7E00
3E00
3F00
1F00
1F00
0F80
0780
0780
0380
03C0
01C0
00C0
ENDCHAR
STARTCHAR 2019
ENCODING 8217
SWIDTH 600 0
DWIDTH 30 0
BBX 10 15 7 15
BITMAP
1FC0
1F80
1F80
1F00
3F00
3E00
3E00
3C00
7C00
7800
7800
F000
F000
E000
C000
ENDCHAR
STARTCHAR 201A
ENCODING 8218
SWIDTH 600 0
DWIDTH 30 0
BBX 10 15 7 -9
BITMAP
1FC0
1F80
1F80
1F00
3F00
3E00
3E00
3C00
7C00
7800
7800
F000
F000
E000
C000
ENDCHAR
STARTCHAR 201C
ENCODING 8220
SWIDTH 600 0
DWIDTH 30 0
BBX 20 13 5 17
BITMAP
FC1F80
7C1F80
7E0FC0
3E07C0
3E07C0
1F03C0
1F03E0
0F01E0
0781E0
0780F0
038070
038070
018030
ENDCHAR
STARTCHAR 201D
ENCODING 8221
SWIDTH 600 0
DWIDTH 30 0
BBX 20 13 5 17
BITMAP
1F83F0
1F83F0
3F07E0
3F07C0
3E07C0
3C0F80
7C0F80
780F00
781E00
F01E00
E01C00
E03C00
C01800
ENDCHAR
STARTCHAR 201E
ENCODING 8222
SWIDTH 600 0
DWIDTH 30 0
BBX 20 13 5 -7
BITMAP
1F83F0
1F83F0
3F07E0
3F07C0
3E07C0
3C0F80
7C0F80
780F00
781E00
F01E00
E01C00
E03C00
C01800
ENDCHAR
STARTCHAR 2020
ENCODING 8224
SWIDTH 600 0
DWIDTH 30 0
BBX 16 33 7 -3
BITMAP
0180
0180
0180
0180
0180
0180
0180
0180
0180
FFFF
FFFF
0180
0180
0180
0180
0180
0180
0180
0180
0180
0180
0180
0180
0180
0180
0180
0180
0180
0180
0180
0180
0180
0180
ENDCHAR
STARTCHAR 2021
ENCODING 8225
SWIDTH 600 0
DWIDTH 30 0
BBX 16 33 7 -3
BITMAP
0180
0180
0180
0180
0180
0180
0180
0180
0180
FFFF
FFFF
0180
0180
0180
0180
0180
0180
0180
0180
0180
0180
0180
FFFF
FFFF
0180
0180
0180
0180
0180
0180
0180
0180
0180
ENDCHAR
STARTCHAR 2022
ENCODING 8226
SWIDTH 600 0
DWIDTH 30 0
BBX 10 10 10 7
BITMAP
1E00
7F80
7F80
FFC0
FFC0
FFC0
FFC0
7F80
7F80
1E00
ENDCHAR
STARTCHAR 2026
ENCODING 8230
SWIDTH 600 0
DWIDTH 30 0
BBX 25 5 3 -1
BITMAP
70380700
F87C0F80
F87C0F80
F87C0F80
70380700
ENDCHAR
STARTCHAR 2122
ENCODING 8482
SWIDTH 600 0
DWIDTH 30 0
BBX 30 16 0 12
BITMAP
FFFBC03C
FFFBC07C
C619E078
C619E058
C619B0D8
C619B098
06019198
06019998
06018B18
06018F18
06018E18
06018018
06018018
06018018
3FC3E07C
3FC3E07C
ENDCHAR
STARTCHAR 25CC
ENCODING 9676
SWIDTH 600 0
DWIDTH 30 0
BBX 19 20 5 2
BITMAP
006000
066300
060300
000300
000000
6000C0
6000C0
000000
000000
C00000
C00060
800060
000000
000000
6000C0
6000C0
000000
060300
066300
006000
ENDCHAR
STARTCHAR F700
ENCODING 63232
SWIDTH 600 0
DWIDTH 30 0
BBX 16 22 9 0
BITMAP
0FF8
3FFF
FE1F
FFE2
FFF0
C1F8
003C
001E
000E
0707
0FC7
1CC7
18E7
18E7
1CF7
0FF7
073F
003F
001F
000F
000F
0007
ENDCHAR
STARTCHAR F701
ENCODING 63233
SWIDTH 0 0
DWIDTH 0 0
BBX 17 8 -26 25
BITMAP
07F000
1FFC00
3FFE00
780F00
700780
E00380
FFFF80
FFFF80
ENDCHAR
STARTCHAR F702
ENCODING 63234
SWIDTH 0 0
DWIDTH 0 0
BBX 19 9 -28 25
BITMAP
0FC0E0
3FF0E0
7FF8E0
787CE0
703CE0
F01EE0
F01FE0
FFFFE0
FFFFE0
ENDCHAR
STARTCHAR F703
ENCODING 63235
SWIDTH 0 0
DWIDTH 0 0
BBX 20 8 -28 25
BITMAP
0FC3C0
1FF7E0
3C7C30
783C30
701C30
601C70
FFFFE0
FFFF80
ENDCHAR
STARTCHAR F704
ENCODING 63236
SWIDTH 0 0
DWIDTH 0 0
BBX 18 8 -27 26
BITMAP
1F0CC0
3F8CC0
7BCCC0
60ECC0
E0FCC0
FFFFC0
FFFFC0
FFFFC0
ENDCHAR
STARTCHAR F705
ENCODING 63237
SWIDTH 0 0
DWIDTH 0 0
BBX 3 8 -11 26
BITMAP
E0
E0
E0
E0
E0
E0
E0
E0
ENDCHAR
STARTCHAR F706
ENCODING 63238
SWIDTH 0 0
DWIDTH 0 0
BBX 14 10 -17 26
BITMAP
7800
FC00
8C00
8C00
8C1C
5C1C
7C38
1CF0
FFE0
FF80
ENDCHAR
STARTCHAR F707
ENCODING 63239
SWIDTH 0 0
DWIDTH 0 0
BBX 20 9 -23 24
BITMAP
1C3800
7E7C00
7FFE20
E7EE70
F9CEF0
E48FF0
E40FE0
640FC0
380F00
ENDCHAR
STARTCHAR F708
ENCODING 63240
SWIDTH 0 0
DWIDTH 0 0
BBX 7 8 -17 26
BITMAP
38
38
38
FE
FE
38
38
38
ENDCHAR
STARTCHAR F709
ENCODING 63241
SWIDTH 0 0
DWIDTH 0 0
BBX 11 9 -14 26
BITMAP
00C0
03C0
0FE0
3FC0
EF00
C600
C600
6E00
3800
ENDCHAR
STARTCHAR F70A
ENCODING 63242
SWIDTH 0 0
DWIDTH 0 0
BBX 3 8 -8 25
BITMAP
E0
E0
E0
E0
E0
E0
E0
E0
ENDCHAR
STARTCHAR F70B
ENCODING 63243
SWIDTH 0 0
DWIDTH 0 0
BBX 14 10 -14 25
BITMAP
7000
FC00
8C00
8C00
8C1C
5C1C
7C3C
3C7C
FFF8
FFE0
ENDCHAR
STARTCHAR F70C
ENCODING 63244
SWIDTH 0 0
DWIDTH 0 0
BBX 20 8 -20 25
BITMAP
3C3C00
7E7C00
7FFE20
E3EE70
F98EF0
E40FE0
640FC0
380F00
ENDCHAR
STARTCHAR F70D
ENCODING 63245
SWIDTH 0 0
DWIDTH 0 0
BBX 7 8 -11 25
BITMAP
38
38
38
FE
FE
38
38
38
ENDCHAR
STARTCHAR F70E
ENCODING 63246
SWIDTH 0 0
DWIDTH 0 0
BBX 11 9 -11 25
BITMAP
00C0
03C0
0FE0
3FC0
EF00
C400
C600
C600
3C00
ENDCHAR
STARTCHAR F70F
ENCODING 63247
SWIDTH 600 0
DWIDTH 30 0
BBX 22 22 3 0
BITMAP
0FC01C
1FF01C
3FF81C
787C1C
701E1C
E00E1C
F80E1C
F80E1C
380E1C
700E1C
700E1C
700E1C
700E1C
700E1C
700E1C
7E0E1C
7F0E1C
730E1C
730E1C
730FFC
7E0FFC
1E0FFC
ENDCHAR
STARTCHAR F710
ENCODING 63248
SWIDTH 0 0
DWIDTH 0 0
BBX 16 9 -23 26
BITMAP
3C04
7E06
C30F
C31F
C33E
E7FC
7FF8
3FE0
0200
ENDCHAR
STARTCHAR F711
ENCODING 63249
SWIDTH 0 0
DWIDTH 0 0
BBX 8 8 -20 25
BITMAP
3C
7E
E7
C3
C3
E7
7E
3C
ENDCHAR
STARTCHAR F712
ENCODING 63250
SWIDTH 0 0
DWIDTH 0 0
BBX 15 11 -25 26
BITMAP
0006
003E
0FF8
3FE0
7800
E000
E000
E30C
F7CA
7EFA
183C
ENDCHAR
STARTCHAR F713
ENCODING 63251
SWIDTH 0 0
DWIDTH 0 0
BBX 3 8 -11 35
BITMAP
E0
E0
E0
E0
E0
E0
E0
E0
ENDCHAR
STARTCHAR F714
ENCODING 63252
SWIDTH 0 0
DWIDTH 0 0
BBX 14 10 -17 34
BITMAP
7000
7800
DC00
8C00
8C1C
DC1C
7C38
3C78
FFF0
FFC0
ENDCHAR
STARTCHAR F715
ENCODING 63253
SWIDTH 0 0
DWIDTH 0 0
BBX 20 9 -23 35
BITMAP
3C3800
7E7C00
7FFE20
E7EE70
F9CEF0
E48FF0
E40FE0
640FC0
380F00
ENDCHAR
STARTCHAR F716
ENCODING 63254
SWIDTH 0 0
DWIDTH 0 0
BBX 7 8 -14 35
BITMAP
38
38
38
FE
FE
38
38
38
ENDCHAR
STARTCHAR F717
ENCODING 63255
SWIDTH 0 0
DWIDTH 0 0
BBX 11 9 -14 35
BITMAP
00C0
03C0
0FE0
3FC0
EF00
C400
C600
C600
3C00
ENDCHAR
STARTCHAR F718
ENCODING 63256
SWIDTH 0 0
DWIDTH 0 0
BBX 7 6 -12 -17
BITMAP
7C
8E
8E
7E
0E
0E
ENDCHAR
STARTCHAR F719
ENCODING 63257
SWIDTH 0 0
DWIDTH 0 0
BBX 12 8 -17 -19
BITMAP
7070
9870
9870
9870
7870
1FF0
1FF0
1FF0
ENDCHAR
STARTCHAR F71A
ENCODING 63258
SWIDTH 0 0
DWIDTH 0 0
BBX 6 6 -14 -16
BITMAP
78
FC
FC
FC
FC
78
ENDCHAR
STARTCHAR F71B
ENCODING 63259
SWIDTH 600 0
DWIDTH 30 0
BBX 20 22 5 0
BITMAP
FFFFF0
FFFFF0
FFFFF0
FFFFF0
FFFFF0
FFFFF0
FFFFF0
FFFFF0
FFFFF0
FFFFF0
FFFFF0
FFFFF0
FFFFF0
FFFFF0
FFFFF0
FFFFF0
FFFFF0
FFFFF0
FFFFF0
FFFFF0
FFFFF0
FFFFF0
ENDCHAR
STARTCHAR F71C
ENCODING 63260
SWIDTH 600 0
DWIDTH 30 0
BBX 0 0 0 0
BITMAP
ENDCHAR
STARTCHAR F71D
ENCODING 63261
SWIDTH 600 0
DWIDTH 30 0
BBX 20 6 5 -6
BITMAP
FFFFF0
FFFFF0
FFFFF0
E00070
E00070
E00070
ENDCHAR
STARTCHAR F71E
ENCODING 63262
SWIDTH 0 0
DWIDTH 0 0
BBX 8 8 -14 35
BITMAP
3C
7E
E7
C3
C3
E7
7E
3C
ENDCHAR
STARTCHAR F71F
ENCODING 63263
SWIDTH 0 0
DWIDTH 0 0
BBX 14 10 -22 35
BITMAP
0008
003C
07F0
3FC0
7000
6000
E000
7798
7FF8
0878
ENDCHAR
STARTCHAR FB00
ENCODING 64256
SWIDTH 1200 0
DWIDTH 60 0
BBX 51 30 6 0
BITMAP
003FF00000FFC0
00FFF80003FFE0
01E00000078000
01800000060000
030000000C0000
030000000C0000
030000000C0000
030000000C0000
030000000C0000
7FFFC001FFFF00
7FFFC001FFFF00
030000000C0000
030000000C0000
030000000C0000
030000000C0000
030000000C0000
030000000C0000
030000000C0000
030000000C0000
030000000C0000
030000000C0000
030000000C0000
030000000C0000
030000000C0000
030000000C0000
030000000C0000
030000000C0000
030000000C0000
FFFFC003FFFF00
FFFFC003FFFF00
ENDCHAR
STARTCHAR FB01
ENCODING 64257
SWIDTH 1200 0
DWIDTH 60 0
BBX 49 31 6 0
BITMAP
00000000070000
003FF000070000
00FFF800070000
01E00000070000
01800000070000
03000000000000
03000000000000
03000000000000
03000000000000
03000000000000
7FFFC001FF0000
7FFFC001FF0000
03000000030000
03000000030000
03000000030000
03000000030000
03000000030000
03000000030000
03000000030000
03000000030000
03000000030000
03000000030000
03000000030000
03000000030000
03000000030000
03000000030000
03000000030000
03000000030000
03000000030000
FFFFC007FFFF80
FFFFC007FFFF80
ENDCHAR
STARTCHAR FB02
ENCODING 64258
SWIDTH 1200 0
DWIDTH 60 0
BBX 49 30 6 0
BITMAP
003FF001FF0000
00FFF801FF0000
01E00000030000
01800000030000
03000000030000
03000000030000
03000000030000
03000000030000
03000000030000
7FFFC000030000
7FFFC000030000
03000000030000
03000000030000
03000000030000
03000000030000
03000000030000
03000000030000
03000000030000
03000000030000
03000000030000
03000000030000
03000000030000
03000000030000
03000000030000
03000000030000
03000000030000
03000000030000
03000000030000
FFFFC007FFFF80
FFFFC007FFFF80
ENDCHAR
STARTCHAR FB03
ENCODING 64259
SWIDTH 1800 0
DWIDTH 90 0
BBX 79 31 6 0
BITMAP
00000000000000001C00
003FF00000FFC0001C00
00FFF80003FFE0001C00
01E00000078000001C00
01800000060000001C00
030000000C0000000000
030000000C0000000000
030000000C0000000000
030000000C0000000000
030000000C0000000000
7FFFC001FFFF0007FC00
7FFFC001FFFF0007FC00
030000000C0000000C00
030000000C0000000C00
030000000C0000000C00
030000000C0000000C00
030000000C0000000C00
030000000C0000000C00
030000000C0000000C00
030000000C0000000C00
030000000C0000000C00
030000000C0000000C00
030000000C0000000C00
030000000C0000000C00
030000000C0000000C00
030000000C0000000C00
030000000C0000000C00
030000000C0000000C00
030000000C0000000C00
FFFFC003FFFF001FFFFE
FFFFC003FFFF001FFFFE
ENDCHAR
STARTCHAR FB04
ENCODING 64260
SWIDTH 1800 0
DWIDTH 90 0
BBX 79 30 6 0
BITMAP
003FF00000FFC007FC00
00FFF80003FFE007FC00
01E00000078000000C00
01800000060000000C00
030000000C0000000C00
030000000C0000000C00
030000000C0000000C00
030000000C0000000C00
030000000C0000000C00
7FFFC001FFFF00000C00
7FFFC001FFFF00000C00
030000000C0000000C00
030000000C0000000C00
030000000C0000000C00
030000000C0000000C00
030000000C0000000C00
030000000C0000000C00
030000000C0000000C00
030000000C0000000C00
030000000C0000000C00
030000000C0000000C00
030000000C0000000C00
030000000C0000000C00
030000000C0000000C00
030000000C0000000C00
030000000C0000000C00
030000000C0000000C00
030000000C0000000C00
FFFFC003FFFF001FFFFE
FFFFC003FFFF001FFFFE
ENDCHAR
ENDFONT
